<?xml version="1.0" encoding="UTF-8" standalone="no"?>
<!-- Created with Inkscape (http://www.inkscape.org/) -->

<svg
   xmlns:dc="http://purl.org/dc/elements/1.1/"
   xmlns:cc="http://creativecommons.org/ns#"
   xmlns:rdf="http://www.w3.org/1999/02/22-rdf-syntax-ns#"
   xmlns:svg="http://www.w3.org/2000/svg"
   xmlns="http://www.w3.org/2000/svg"
   xmlns:sodipodi="http://sodipodi.sourceforge.net/DTD/sodipodi-0.dtd"
   xmlns:inkscape="http://www.inkscape.org/namespaces/inkscape"
   width="900"
   height="900"
   viewBox="0 0 900 900.00001"
   id="svg2"
   version="1.1"
   inkscape:version="0.91 r13725"
   inkscape:export-filename="/Users/satvik/clean.png"
   inkscape:export-xdpi="90"
   inkscape:export-ydpi="90"
   sodipodi:docname="5906.svg">
  <defs
     id="defs4">
    <clipPath
       id="clip0">
      <rect
         id="rect5029"
         height="480"
         width="1070"
         x="0"
         y="0" />
    </clipPath>
  </defs>
  <sodipodi:namedview
     id="base"
     pagecolor="#1d1f21"
     bordercolor="#666666"
     borderopacity="1.0"
     inkscape:pageopacity="1"
     inkscape:pageshadow="2"
     inkscape:zoom="0.70710678"
     inkscape:cx="289.07296"
     inkscape:cy="485.22535"
     inkscape:document-units="px"
     inkscape:current-layer="layer1"
     showgrid="false"
     units="px"
     inkscape:window-width="1440"
     inkscape:window-height="855"
     inkscape:window-x="0"
     inkscape:window-y="1"
     inkscape:window-maximized="1" />
  <metadata
     id="metadata7">
    <rdf:RDF>
      <cc:Work
         rdf:about="">
        <dc:format>image/svg+xml</dc:format>
        <dc:type
           rdf:resource="http://purl.org/dc/dcmitype/StillImage" />
        <dc:title />
      </cc:Work>
    </rdf:RDF>
  </metadata>
  <g
     inkscape:label="Layer 1"
     inkscape:groupmode="layer"
     id="layer1"
     transform="translate(0,-152.36216)">
    <g
       style="font-style:normal;font-variant:normal;font-weight:100;font-stretch:normal;font-size:209.67903137px;line-height:125%;font-family:Andes;-inkscape-font-specification:'Andes, Thin';text-align:start;letter-spacing:0px;word-spacing:0px;writing-mode:lr-tb;text-anchor:start;fill:#ffffff;fill-opacity:1;stroke:none;stroke-width:1px;stroke-linecap:butt;stroke-linejoin:miter;stroke-opacity:1"
       id="text4334"
       transform="translate(5e-6,0)">
      <path
         d="m 199.35821,578.56359 7.12908,-54.30687 50.74233,0 0,12.79042 -39.41966,0 -3.35486,25.58084 2.09679,0 q 12.37106,0 23.48405,4.82262 11.11299,4.61294 18.66143,12.37106 7.54845,7.75813 12.37106,19.08079 5.0323,11.32267 5.0323,23.0647 0,15.9356 -7.9678,29.77442 -7.75813,13.62914 -21.59694,21.80662 -13.83882,7.9678 -29.9841,7.9678 -13.41946,0 -24.32277,-5.45165 l 5.87101,-11.32267 q 8.59684,3.77422 18.45176,3.77422 20.33886,0 33.33896,-14.04849 13.20978,-14.0485 13.20978,-32.50025 0,-19.50015 -14.04849,-32.91961 -13.83882,-13.62914 -32.50025,-13.62914 -8.59684,0 -17.19368,3.14519 z"
         id="path4138"
         inkscape:connector-curvature="0" />
      <path
         d="m 357.74123,638.32211 q -7.12909,1.67743 -12.58074,1.67743 -16.77433,0 -30.19378,-7.9678 -13.41946,-8.17748 -21.59694,-22.0163 -8.17749,-13.83881 -8.17749,-29.9841 0,-16.14529 7.96781,-29.77442 8.17748,-13.83882 21.80662,-22.0163 13.83881,-8.17748 30.19378,-8.17748 15.9356,0 29.77442,8.17748 13.83882,8.17748 22.0163,22.0163 8.17748,13.62913 8.17748,29.77442 0,18.66143 -11.32267,35.43576 l -57.66173,68.35536 -10.27427,-7.75812 31.87121,-37.74223 z m -12.58074,-11.32267 q 13.41946,0 23.90341,-6.29037 10.48395,-6.29037 16.77432,-17.19368 6.29037,-10.90331 6.29037,-23.48405 0,-13.62914 -6.50005,-23.90341 -6.50005,-10.48395 -17.40336,-16.77432 -10.90331,-6.29037 -23.06469,-6.29037 -7.12909,0 -12.79042,1.46775 -5.45166,1.46775 -13.62914,6.50005 -7.9678,5.0323 -14.25817,16.14529 -6.29038,10.90331 -6.29038,22.85501 0,13.41946 6.29038,24.11309 6.50005,10.48395 17.40335,16.77432 10.90331,6.08069 23.27438,6.08069 z"
         id="path4140"
         inkscape:connector-curvature="0" />
      <path
         d="m 496.38822,520.06314 q 16.77432,0 31.87121,6.50005 15.09689,6.29037 26.20988,17.19368 11.11299,10.90331 17.61304,26.62923 6.50005,15.51625 6.50005,32.0809 0,16.56464 -6.50005,31.66153 -6.29037,15.09689 -17.61304,26.41956 -11.11299,11.11299 -26.20988,17.61304 -15.09689,6.50005 -31.87121,6.50005 -16.35496,0 -31.45186,-6.29037 -14.88721,-6.29038 -26.41955,-17.82272 -11.32267,-11.53235 -17.82272,-26.41956 -6.50005,-15.09689 -6.50005,-31.66153 0,-16.35497 6.29037,-31.66154 6.29037,-15.51625 17.61304,-26.62923 11.53235,-11.32267 26.83891,-17.61304 15.30657,-6.50005 31.45186,-6.50005 z m 0,13.0001 q -29.56474,0 -49.48425,20.54854 -19.70983,20.54855 -19.70983,48.85522 0,29.77442 20.54854,49.69393 20.54855,19.70983 48.64554,19.70983 29.56474,0 44.45195,-15.51625 14.88722,-15.72593 19.91951,-28.51635 5.0323,-13.0001 5.0323,-25.37116 0,-29.56475 -20.75823,-49.48426 -20.54854,-19.9195 -48.64553,-19.9195 z"
         id="path4142"
         inkscape:connector-curvature="0" />
      <path
         d="m 632.28642,565.14413 q 3.35486,-0.83872 7.54845,-1.46775 4.19358,-0.62904 7.9678,-0.62904 15.93561,0 29.77442,8.17748 13.83882,8.17748 22.0163,22.0163 8.17748,13.62914 8.17748,29.77442 0,15.72593 -8.17748,29.56474 -7.9678,13.62914 -21.80662,22.0163 -13.83882,8.38716 -29.9841,8.38716 -16.77432,0 -30.19378,-7.9678 -13.20978,-7.9678 -21.59694,-22.0163 -8.17748,-14.04849 -8.17748,-29.9841 0,-19.29047 11.32266,-35.43575 l 50.32297,-66.67794 10.48395,7.54845 -27.67763,36.69383 z m 15.51625,10.90331 q -13.41946,0 -24.11309,6.50005 -10.69363,6.29037 -16.77432,17.40336 -6.08069,10.90331 -6.08069,23.06469 0,13.41946 6.29037,24.11309 6.50005,10.48395 17.40336,16.77432 10.90331,6.08069 23.27437,6.08069 13.41946,0 23.90341,-6.29037 10.48395,-6.29037 16.77432,-17.19368 6.29037,-10.90331 6.29037,-23.48405 0,-13.62914 -6.50005,-23.90341 -6.50005,-10.48395 -17.40336,-16.77432 -10.90331,-6.29037 -23.06469,-6.29037 z"
         id="path4144"
         inkscape:connector-curvature="0" />
    </g>
  </g>
</svg>
