<?xml version="1.0" encoding="UTF-8" standalone="no"?>
<!-- Created with Inkscape (http://www.inkscape.org/) -->

<svg
   xmlns:dc="http://purl.org/dc/elements/1.1/"
   xmlns:cc="http://creativecommons.org/ns#"
   xmlns:rdf="http://www.w3.org/1999/02/22-rdf-syntax-ns#"
   xmlns:svg="http://www.w3.org/2000/svg"
   xmlns="http://www.w3.org/2000/svg"
   xmlns:sodipodi="http://sodipodi.sourceforge.net/DTD/sodipodi-0.dtd"
   xmlns:inkscape="http://www.inkscape.org/namespaces/inkscape"
   width="384"
   height="384"
   viewBox="0 0 384 384"
   id="svg2"
   version="1.1"
   inkscape:version="0.91 r13725"
   sodipodi:docname="logo_alpha.svg">
  <defs
     id="defs4" />
  <sodipodi:namedview
     id="base"
     pagecolor="#ffa5ff"
     bordercolor="#666666"
     borderopacity="1"
     inkscape:pageopacity="0"
     inkscape:pageshadow="2"
     inkscape:zoom="0.49497475"
     inkscape:cx="387.42009"
     inkscape:cy="247.88398"
     inkscape:document-units="px"
     inkscape:current-layer="layer1"
     showgrid="false"
     units="px"
     inkscape:window-width="1440"
     inkscape:window-height="771"
     inkscape:window-x="0"
     inkscape:window-y="1"
     inkscape:window-maximized="1" />
  <metadata
     id="metadata7">
    <rdf:RDF>
      <cc:Work
         rdf:about="">
        <dc:format>image/svg+xml</dc:format>
        <dc:type
           rdf:resource="http://purl.org/dc/dcmitype/StillImage" />
        <dc:title></dc:title>
      </cc:Work>
    </rdf:RDF>
  </metadata>
  <g
     inkscape:label="Layer 1"
     inkscape:groupmode="layer"
     id="layer1"
     transform="translate(0,-668.36219)">
    <g
       id="g4687"
       transform="translate(-64,64)">
      <path
         inkscape:connector-curvature="0"
         id="path4666"
         d="m 304.32812,833.78016 a 100,100 0 0 0 3.52149,-2.04102 100,100 0 0 0 8.27344,-5.60742 100,100 0 0 0 7.67383,-6.4082 100,100 0 0 0 6.99609,-7.13867 100,100 0 0 0 6.24609,-7.80274 100,100 0 0 0 5.4375,-8.38867 100,100 0 0 1 13.52344,49.96875 100,100 0 0 1 -13.52344,50.0332 100,100 0 0 1 -3.94336,6.43164 100,100 0 0 1 -6.04882,7.95704 100,100 0 0 1 -6.81446,7.31445 100,100 0 0 1 -7.50976,6.5957 100,100 0 0 1 -8.13086,5.81445 100,100 0 0 1 -5.70118,3.27149 A 100,100 0 0 1 256,946.36219 a 100,100 0 0 1 -48.37305,-12.50586 50,50 0 0 1 1.45703,-4.66602 50,50 0 0 1 0.043,-0.1289 50,50 0 0 1 1.88282,-4.41797 50,50 0 0 1 0.084,-0.18945 50,50 0 0 1 2.2832,-4.14844 50,50 0 0 1 0.13477,-0.23828 50,50 0 0 1 2.5957,-3.76953 50,50 0 0 1 0.26367,-0.36914 50,50 0 0 1 2.87696,-3.39453 50,50 0 0 1 0.37304,-0.42579 50,50 0 0 1 3.09766,-2.99218 50,50 0 0 1 0.52734,-0.49024 50,50 0 0 1 3.25782,-2.57031 50,50 0 0 1 0.69531,-0.5293 50,50 0 0 1 3.26953,-2.08594 50,50 0 0 1 1.00586,-0.61718 50,50 0 0 1 3.23828,-1.63672 50,50 0 0 1 1.26367,-0.60938 50,50 0 0 1 3.15821,-1.21875 50,50 0 0 1 1.55664,-0.56836 50,50 0 0 1 3.08593,-0.84765 50,50 0 0 1 1.76758,-0.45117 50,50 0 0 1 2.91797,-0.49414 50,50 0 0 1 2.07031,-0.3125 50,50 0 0 1 2.65235,-0.18165 50,50 0 0 1 2.81445,-0.14062 50,50 0 0 0 4.99219,-0.25 50,50 0 0 0 4.9414,-0.74609 50,50 0 0 0 4.8418,-1.23633 50,50 0 0 0 4.69531,-1.71485 50,50 0 0 0 4.5,-2.17382 50,50 0 0 0 4.26172,-2.61133 50,50 0 0 0 3.97852,-3.02539 50,50 0 0 0 3.65625,-3.40625 50,50 0 0 0 3.29883,-3.75586 50,50 0 0 0 2.9082,-4.06446 50,50 0 0 0 2.48633,-4.33593 50,50 0 0 0 2.04101,-4.5625 50,50 0 0 0 1.57617,-4.74219 50,50 0 0 0 0.19532,-0.86914 50,50 0 0 0 1.6269,-12.50586 50,50 0 0 0 -1.67188,-12.58203 z"
         style="fill:#000000;stroke:none;stroke-width:0.2;stroke-miterlimit:4;stroke-dasharray:none" />
      <path
         inkscape:connector-curvature="0"
         id="path4442"
         d="m 256,746.35828 0,0.004 a 100,100 0 0 1 48.37305,12.50586 50,50 0 0 1 -0.22266,0.83203 50,50 0 0 1 -1.57227,4.74414 50,50 0 0 1 -2.03906,4.56445 50,50 0 0 1 -2.48242,4.33594 50,50 0 0 1 -2.9043,4.06836 50,50 0 0 1 -3.29687,3.75781 50,50 0 0 1 -3.6543,3.41016 50,50 0 0 1 -3.97656,3.02734 50,50 0 0 1 -4.25781,2.61524 50,50 0 0 1 -4.49805,2.17773 50,50 0 0 1 -4.69531,1.7168 50,50 0 0 1 -4.83985,1.24023 50,50 0 0 1 -4.9414,0.75 50,50 0 0 1 -4.99219,0.25391 50,50 0 0 1 -0.76172,-0.006 50,50 0 0 1 -4.98633,-0.33398 50,50 0 0 1 -4.92968,-0.82813 50,50 0 0 1 -4.82032,-1.31641 50,50 0 0 1 -4.66601,-1.79101 50,50 0 0 1 -4.46485,-2.24609 50,50 0 0 1 -4.21679,-2.6836 50,50 0 0 1 -3.92774,-3.08984 50,50 0 0 1 -3.59961,-3.4668 50,50 0 0 1 -3.23633,-3.80859 50,50 0 0 1 -2.83984,-4.11328 50,50 0 0 1 -2.41601,-4.375 50,50 0 0 1 -1.96485,-4.59571 50,50 0 0 1 -1.49804,-4.76758 A 100,100 0 0 1 256,746.35828 Z"
         style="fill:#000000;stroke:none;stroke-width:0.2;stroke-miterlimit:4;stroke-dasharray:none" />
      <path
         inkscape:connector-curvature="0"
         id="path4656"
         d="m 342.47656,796.39344 a 100,100 0 0 0 -2.33008,-4.0625 100,100 0 0 0 -5.81445,-8.12891 100,100 0 0 0 -6.5957,-7.50976 100,100 0 0 0 -7.31445,-6.81446 100,100 0 0 0 -7.95704,-6.04882 100,100 0 0 0 -8.09179,-4.96094 50,50 0 0 0 1.62695,-12.50586 50,50 0 0 0 -1.67188,-12.58203 100,100 0 0 0 5.70118,-3.27149 100,100 0 0 0 8.13086,-5.81445 100,100 0 0 0 7.50976,-6.5957 100,100 0 0 0 6.81446,-7.31445 100,100 0 0 0 6.04882,-7.95704 100,100 0 0 0 3.94336,-6.43164 100,100 0 0 1 13.52344,49.9668 100,100 0 0 1 -13.52344,50.03125 z"
         style="fill:#ffffff;stroke:none;stroke-width:0.2;stroke-miterlimit:4;stroke-dasharray:none" />
      <path
         inkscape:connector-curvature="0"
         id="path4652"
         d="m 207.62695,833.85633 a 50,50 0 0 1 0.19532,-0.86914 50,50 0 0 1 1.57617,-4.74219 50,50 0 0 1 2.04101,-4.5625 50,50 0 0 1 2.48633,-4.33593 50,50 0 0 1 2.9082,-4.06446 50,50 0 0 1 3.29883,-3.75586 50,50 0 0 1 3.65625,-3.40625 50,50 0 0 1 3.97852,-3.02539 50,50 0 0 1 4.26172,-2.61133 50,50 0 0 1 4.5,-2.17382 50,50 0 0 1 4.69531,-1.71485 50,50 0 0 1 4.8418,-1.23633 50,50 0 0 1 4.9414,-0.74609 50,50 0 0 1 4.99219,-0.25 50,50 0 0 1 3.53711,0.125 50,50 0 0 1 4.96094,0.60156 50,50 0 0 1 4.87695,1.09571 50,50 0 0 1 4.74219,1.57617 50,50 0 0 1 4.5625,2.04101 50,50 0 0 1 4.33593,2.48633 50,50 0 0 1 4.06446,2.9082 50,50 0 0 1 3.75586,3.29883 50,50 0 0 1 3.40625,3.65625 50,50 0 0 1 3.02539,3.97852 50,50 0 0 1 2.61133,4.26172 50,50 0 0 1 2.17382,4.5 50,50 0 0 1 1.71485,4.69531 50,50 0 0 1 0.56054,2.19336 A 100,100 0 0 1 256,846.36219 100,100 0 0 1 207.62695,833.85633 Z"
         style="fill:#ffffff;stroke:none;stroke-width:0.2;stroke-miterlimit:4;stroke-dasharray:none" />
      <path
         inkscape:connector-curvature="0"
         id="path4444"
         d="m 256,646.36219 a 100,100 0 0 1 48.37305,12.50586 50,50 0 0 1 -0.19532,0.86914 50,50 0 0 1 -1.57617,4.74219 50,50 0 0 1 -2.04101,4.5625 50,50 0 0 1 -2.48633,4.33593 50,50 0 0 1 -2.9082,4.06446 50,50 0 0 1 -3.29883,3.75586 50,50 0 0 1 -3.65625,3.40625 50,50 0 0 1 -3.97852,3.02539 50,50 0 0 1 -4.26172,2.61133 50,50 0 0 1 -4.5,2.17382 50,50 0 0 1 -4.69531,1.71485 50,50 0 0 1 -4.8418,1.23633 50,50 0 0 1 -4.9414,0.74609 50,50 0 0 1 -4.99219,0.25 50,50 0 0 0 -2.81445,0.14062 50,50 0 0 0 -2.65235,0.18165 50,50 0 0 0 -2.07031,0.3125 50,50 0 0 0 -2.91797,0.49414 50,50 0 0 0 -1.76758,0.45117 50,50 0 0 0 -3.08593,0.84765 50,50 0 0 0 -1.55664,0.56836 50,50 0 0 0 -3.15821,1.21875 50,50 0 0 0 -1.26367,0.60938 50,50 0 0 0 -3.23828,1.63672 50,50 0 0 0 -1.00586,0.61718 50,50 0 0 0 -3.26953,2.08594 50,50 0 0 0 -0.69531,0.5293 50,50 0 0 0 -3.25782,2.57031 50,50 0 0 0 -0.52734,0.49024 50,50 0 0 0 -3.09766,2.99218 50,50 0 0 0 -0.37304,0.42579 50,50 0 0 0 -2.87696,3.39453 50,50 0 0 0 -0.26367,0.36914 50,50 0 0 0 -2.5957,3.76953 50,50 0 0 0 -0.13477,0.23828 50,50 0 0 0 -2.2832,4.14844 50,50 0 0 0 -0.084,0.18945 50,50 0 0 0 -1.88282,4.41797 50,50 0 0 0 -0.043,0.1289 50,50 0 0 0 -1.45703,4.66602 50,50 0 0 0 -1.62695,12.50586 50,50 0 0 0 1.67188,12.57812 100,100 0 0 0 -5.70118,3.27149 100,100 0 0 0 -8.13086,5.81445 100,100 0 0 0 -7.50976,6.59571 100,100 0 0 0 -6.81446,7.31445 100,100 0 0 0 -6.04882,7.95703 100,100 0 0 0 -3.94532,6.43555 A 100,100 0 0 1 156,746.36219 a 100,100 0 0 1 13.52344,-50.0332 100,100 0 0 1 2.27148,-3.70508 100,100 0 0 1 5.40625,-7.63867 100,100 0 0 1 0.33008,-0.4336 100,100 0 0 1 6.29102,-7.23437 100,100 0 0 1 0.23046,-0.24805 100,100 0 0 1 7.08594,-6.66797 100,100 0 0 1 0.17188,-0.14844 100,100 0 0 1 7.8164,-6.0039 100,100 0 0 1 0.0762,-0.0547 100,100 0 0 1 8.4629,-5.24609 100,100 0 0 1 0.006,-0.004 A 100,100 0 0 1 256,646.36219 Z"
         style="fill:#ffffff;stroke:none;stroke-width:0.2;stroke-miterlimit:4;stroke-dasharray:none" />
      <path
         inkscape:connector-curvature="0"
         id="path4661"
         d="m 169.52148,796.32899 a 100,100 0 0 0 2.13868,3.54492 100,100 0 0 0 5.75781,8.17187 100,100 0 0 0 6.54492,7.55664 100,100 0 0 0 7.26563,6.86329 100,100 0 0 0 7.91406,6.10546 100,100 0 0 0 8.48437,5.28516 50,50 0 0 0 -1.62695,12.50586 50,50 0 0 0 1.67188,12.58203 100,100 0 0 0 -0.006,0 100,100 0 0 0 -8.4629,5.24609 100,100 0 0 0 -0.0762,0.0547 100,100 0 0 0 -7.8164,6.00391 100,100 0 0 0 -0.17188,0.14844 100,100 0 0 0 -7.08594,6.66796 100,100 0 0 0 -0.23046,0.24805 100,100 0 0 0 -6.29102,7.23438 100,100 0 0 0 -0.33008,0.43359 100,100 0 0 0 -5.40625,7.63867 100,100 0 0 0 -2.27148,3.70508 A 100,100 0 0 1 156,846.35828 100,100 0 0 1 169.52148,796.32899 Z"
         style="fill:#000000;stroke:none;stroke-width:0.2;stroke-miterlimit:4;stroke-dasharray:none" />
    </g>
  </g>
</svg>
