<?xml version="1.0" encoding="UTF-8" standalone="no"?>
<!-- Generator: Adobe Illustrator 15.0.0, SVG Export Plug-In . SVG Version: 6.00 Build 0)  -->

<svg
   xmlns:dc="http://purl.org/dc/elements/1.1/"
   xmlns:cc="http://creativecommons.org/ns#"
   xmlns:rdf="http://www.w3.org/1999/02/22-rdf-syntax-ns#"
   xmlns:svg="http://www.w3.org/2000/svg"
   xmlns="http://www.w3.org/2000/svg"
   xmlns:sodipodi="http://sodipodi.sourceforge.net/DTD/sodipodi-0.dtd"
   xmlns:inkscape="http://www.inkscape.org/namespaces/inkscape"
   version="1.1"
   id="Layer_1"
   x="0px"
   y="0px"
   width="112"
   height="112"
   viewBox="0 0 112 112"
   enable-background="new 0 0 190 50"
   xml:space="preserve"
   inkscape:version="0.91 r13725"
   sodipodi:docname="outlook.svg"><metadata
     id="metadata45"><rdf:RDF><cc:Work
         rdf:about=""><dc:format>image/svg+xml</dc:format><dc:type
           rdf:resource="http://purl.org/dc/dcmitype/StillImage" /><dc:title /></cc:Work></rdf:RDF></metadata><defs
     id="defs43" /><sodipodi:namedview
     pagecolor="#ffffff"
     bordercolor="#666666"
     borderopacity="1"
     objecttolerance="10"
     gridtolerance="10"
     guidetolerance="10"
     inkscape:pageopacity="0"
     inkscape:pageshadow="2"
     inkscape:window-width="1440"
     inkscape:window-height="775"
     id="namedview41"
     showgrid="false"
     fit-margin-top="0"
     fit-margin-left="0"
     fit-margin-right="0"
     fit-margin-bottom="0"
     inkscape:zoom="2.8284271"
     inkscape:cx="64.264618"
     inkscape:cy="89.87632"
     inkscape:window-x="0"
     inkscape:window-y="1"
     inkscape:window-maximized="1"
     inkscape:current-layer="g23" /><g
     id="g23"
     transform="matrix(3.9178712,0,0,3.9178712,-13.481403,-33.697789)"
     style="fill:#000000"><path
       id="path27"
       style="fill:#000000"
       d="m 19.812296,9.5821271 -15.4998873,3.0000739 0,20.374884 15.4998873,3.249832 0,-26.6247899 z m 0.24876,3.6920159 0,20.394326 0,-20.394326 z m -7.824721,4.963733 c 1.023,0 1.851115,0.418262 2.482115,1.256262 0.632,0.838 0.947681,1.941645 0.947681,3.312645 9.95e-4,1.409 -0.327078,2.545363 -0.982078,3.407363 -0.655,0.862 -1.508876,1.293651 -2.562876,1.293651 -1.027,0 -1.863032,-0.417773 -2.5100323,-1.252773 -0.646,-0.836 -0.9701138,-1.923784 -0.9701138,-3.265784 0,-1.417 0.3280692,-2.563271 0.9850694,-3.438271 0.6569997,-0.875 1.5272347,-1.313093 2.6102347,-1.313093 z m 9.066526,-3.011042 0,5.208006 1.820085,1.14609 c 0.048,0.014 0.151905,0.015 0.199905,0 l 7.832698,-5.28079 c 0,-0.624999 -0.582788,-1.073306 -0.911786,-1.073306 l -8.940902,0 z m 9.853686,3.178045 c 0,0 -7.957663,5.286285 -7.676663,5.114285 0,0 -0.281965,0.172 -0.515965,0 l -1.661058,-1.141106 -9.95e-4,0 0,7.077943 8.437898,0 c 0.749999,0 1.416785,-0.437099 1.416785,-1.479099 l 0,-9.572023 z m -18.964082,1.572322 c -0.566,0 -1.016984,0.26563 -1.349984,0.79663 -0.332999,0.531 -0.500012,1.234225 -0.500012,2.109225 0,0.888 0.167013,1.589736 0.500012,2.105735 0.333,0.517001 0.769604,0.774197 1.309604,0.774197 0.557,0 0.999058,-0.25076 1.325058,-0.75276 0.326,-0.502 0.490042,-1.199282 0.490042,-2.090282 0,-0.929 -0.158086,-1.652047 -0.475086,-2.169047 -0.317,-0.516 -0.749634,-0.773698 -1.299634,-0.773698 z"
       inkscape:connector-curvature="0" /></g></svg>