<?xml version="1.0" encoding="UTF-8" standalone="no"?>
<!-- Generator: Adobe Illustrator 15.0.0, SVG Export Plug-In . SVG Version: 6.00 Build 0)  -->

<svg
   xmlns:dc="http://purl.org/dc/elements/1.1/"
   xmlns:cc="http://creativecommons.org/ns#"
   xmlns:rdf="http://www.w3.org/1999/02/22-rdf-syntax-ns#"
   xmlns:svg="http://www.w3.org/2000/svg"
   xmlns="http://www.w3.org/2000/svg"
   xmlns:sodipodi="http://sodipodi.sourceforge.net/DTD/sodipodi-0.dtd"
   xmlns:inkscape="http://www.inkscape.org/namespaces/inkscape"
   version="1.1"
   id="Layer_1"
   x="0px"
   y="0px"
   width="112"
   height="112"
   viewBox="0 0 112 112"
   enable-background="new 0 0 190 50"
   xml:space="preserve"
   inkscape:version="0.91 r13725"
   sodipodi:docname="outlook.svg"><metadata
     id="metadata45"><rdf:RDF><cc:Work
         rdf:about=""><dc:format>image/svg+xml</dc:format><dc:type
           rdf:resource="http://purl.org/dc/dcmitype/StillImage" /><dc:title></dc:title></cc:Work></rdf:RDF></metadata><defs
     id="defs43" /><sodipodi:namedview
     pagecolor="#ffffff"
     bordercolor="#666666"
     borderopacity="1"
     objecttolerance="10"
     gridtolerance="10"
     guidetolerance="10"
     inkscape:pageopacity="0"
     inkscape:pageshadow="2"
     inkscape:window-width="1440"
     inkscape:window-height="775"
     id="namedview41"
     showgrid="false"
     fit-margin-top="0"
     fit-margin-left="0"
     fit-margin-right="0"
     fit-margin-bottom="0"
     inkscape:zoom="1"
     inkscape:cx="-199.44101"
     inkscape:cy="89.87632"
     inkscape:window-x="0"
     inkscape:window-y="1"
     inkscape:window-maximized="1"
     inkscape:current-layer="Layer_1" /><g
     id="g23"
     transform="matrix(3.9178712,0,0,3.9178712,-13.481403,-33.697789)"
     style="fill:#000000"><path
       id="path27"
       style="fill:#000000"
       d="m 4.567479,12.582022 0,20.375 15.5,3.25 0,-26.6249998 -15.5,2.9999998 z m 10.372,13.632 c -0.655,0.862 -1.509,1.294 -2.563,1.294 -1.027,0 -1.863,-0.418 -2.51,-1.253 -0.646,-0.836 -0.97,-1.924 -0.97,-3.266 0,-1.417 0.328,-2.563 0.985,-3.438 0.657,-0.875 1.527,-1.313 2.61,-1.313 1.023,0 1.851,0.418 2.482,1.256 0.632,0.838 0.948,1.942 0.948,3.313 10e-4,1.409 -0.327,2.545 -0.982,3.407 z m -2.492,-6.237 c -0.566,0 -1.017,0.266 -1.35,0.797 -0.333,0.531 -0.5,1.234 -0.5,2.109 0,0.888 0.167,1.59 0.5,2.106 0.333,0.517 0.77,0.774 1.31,0.774 0.557,0 0.999,-0.251 1.325,-0.753 0.326,-0.502 0.49,-1.199 0.49,-2.09 0,-0.929 -0.158,-1.652 -0.475,-2.169 -0.317,-0.516 -0.75,-0.774 -1.3,-0.774 z m 8.6,2.401 1.661,1.141 c 0.234,0.172 0.516,0 0.516,0 -0.281,0.172 7.676999,-5.114 7.676999,-5.114 l 0,9.572 c 0,1.042 -0.666999,1.479 -1.416999,1.479 l -8.438,0 0,-7.078 z m 0,-7.151 0,5.208 1.82,1.146 c 0.048,0.014 0.152,0.015 0.2,0 l 7.832999,-5.281 c 0,-0.625 -0.583,-1.073 -0.911999,-1.073 l -8.941,0 z"
       inkscape:connector-curvature="0" /></g></svg>