<?xml version="1.0" encoding="UTF-8" standalone="no"?>
<!-- Generator: Adobe Illustrator 19.0.0, SVG Export Plug-In . SVG Version: 6.00 Build 0)  -->

<svg
   xmlns:dc="http://purl.org/dc/elements/1.1/"
   xmlns:cc="http://creativecommons.org/ns#"
   xmlns:rdf="http://www.w3.org/1999/02/22-rdf-syntax-ns#"
   xmlns:svg="http://www.w3.org/2000/svg"
   xmlns="http://www.w3.org/2000/svg"
   xmlns:sodipodi="http://sodipodi.sourceforge.net/DTD/sodipodi-0.dtd"
   xmlns:inkscape="http://www.inkscape.org/namespaces/inkscape"
   version="1.1"
   id="Layer_1"
   x="0px"
   y="0px"
   viewBox="0 0 440.00001 440.00001"
   xml:space="preserve"
   inkscape:version="0.91 r13725"
   sodipodi:docname="quora.svg"
   width="440"
   height="440"><metadata
     id="metadata39"><rdf:RDF><cc:Work
         rdf:about=""><dc:format>image/svg+xml</dc:format><dc:type
           rdf:resource="http://purl.org/dc/dcmitype/StillImage" /><dc:title></dc:title></cc:Work></rdf:RDF></metadata><defs
     id="defs37" /><sodipodi:namedview
     pagecolor="#ffffff"
     bordercolor="#666666"
     borderopacity="1"
     objecttolerance="10"
     gridtolerance="10"
     guidetolerance="10"
     inkscape:pageopacity="0"
     inkscape:pageshadow="2"
     inkscape:window-width="666"
     inkscape:window-height="480"
     id="namedview35"
     showgrid="false"
     inkscape:zoom="0.55182607"
     inkscape:cx="166.71919"
     inkscape:cy="213.83549"
     inkscape:window-x="0"
     inkscape:window-y="0"
     inkscape:window-maximized="0"
     inkscape:current-layer="Layer_1" /><path
     style="fill:#000000"
     d="m 392.6805,341.7575 c 0,0 -2.093,30.699 -30.001,30.699 -21.553,0 -36.272,-16.439 -50.055,-37.786 39.148,-34.171 64.008,-85.199 64.008,-142.221 0.001,-102.882 -80.903,-186.285 -180.703,-186.285 -99.8,0 -180.704,83.403 -180.704,186.286 0,102.883 80.904,186.286 180.704,186.286 18.112,0 35.595,-2.759 52.092,-7.871 20.871,33.157 47.366,62.97 88.843,62.97 84.421,0 87.91,-92.077 87.91,-92.077 l -32.094,0 0,-0.001 z m -196.751,6.28 c -58.185,0 -105.353,-69.659 -105.353,-155.587 0,-85.928 47.168,-155.587 105.353,-155.587 58.185,0 105.352,69.659 105.352,155.587 0,34.169 -7.464,65.759 -20.108,91.426 -14.283,-20.392 -31.428,-37.757 -55.941,-43.285 -43.485,-9.805 -80.933,9.768 -92.794,19.536 l 11.163,23.024 c 0,0 11.285,-6.488 39.267,-0.008 17.631,4.083 31.332,28.551 47.034,56.623 -10.658,5.36 -22.085,8.271 -33.973,8.271 z"
     id="path3"
     inkscape:connector-curvature="0" /><g
     id="g5"
     transform="translate(0,12.32901)" /><g
     id="g7"
     transform="translate(0,12.32901)" /><g
     id="g9"
     transform="translate(0,12.32901)" /><g
     id="g11"
     transform="translate(0,12.32901)" /><g
     id="g13"
     transform="translate(0,12.32901)" /><g
     id="g15"
     transform="translate(0,12.32901)" /><g
     id="g17"
     transform="translate(0,12.32901)" /><g
     id="g19"
     transform="translate(0,12.32901)" /><g
     id="g21"
     transform="translate(0,12.32901)" /><g
     id="g23"
     transform="translate(0,12.32901)" /><g
     id="g25"
     transform="translate(0,12.32901)" /><g
     id="g27"
     transform="translate(0,12.32901)" /><g
     id="g29"
     transform="translate(0,12.32901)" /><g
     id="g31"
     transform="translate(0,12.32901)" /><g
     id="g33"
     transform="translate(0,12.32901)" /></svg>