<?xml version="1.0" encoding="UTF-8" standalone="no"?>
<svg
   xmlns:dc="http://purl.org/dc/elements/1.1/"
   xmlns:cc="http://creativecommons.org/ns#"
   xmlns:rdf="http://www.w3.org/1999/02/22-rdf-syntax-ns#"
   xmlns:svg="http://www.w3.org/2000/svg"
   xmlns="http://www.w3.org/2000/svg"
   xmlns:sodipodi="http://sodipodi.sourceforge.net/DTD/sodipodi-0.dtd"
   xmlns:inkscape="http://www.inkscape.org/namespaces/inkscape"
   version="1.1"
   x="0px"
   y="0px"
   viewBox="0 0 95.999999 96"
   xml:space="preserve"
   id="svg2"
   inkscape:version="0.91 r13725"
   sodipodi:docname="stackoverflow.svg"
   width="96"
   height="96"><metadata
     id="metadata14"><rdf:RDF><cc:Work
         rdf:about=""><dc:format>image/svg+xml</dc:format><dc:type
           rdf:resource="http://purl.org/dc/dcmitype/StillImage" /><dc:title /></cc:Work></rdf:RDF></metadata><defs
     id="defs12" /><sodipodi:namedview
     pagecolor="#ffffff"
     bordercolor="#666666"
     borderopacity="1"
     objecttolerance="10"
     gridtolerance="10"
     guidetolerance="10"
     inkscape:pageopacity="0"
     inkscape:pageshadow="2"
     inkscape:window-width="1266"
     inkscape:window-height="745"
     id="namedview10"
     showgrid="false"
     fit-margin-top="0"
     fit-margin-left="0"
     fit-margin-right="0"
     fit-margin-bottom="0"
     inkscape:zoom="3.9333334"
     inkscape:cx="73.274577"
     inkscape:cy="61.331532"
     inkscape:window-x="0"
     inkscape:window-y="0"
     inkscape:window-maximized="0"
     inkscape:current-layer="svg2" /><style
     type="text/css"
     id="style4">
	.st0{fill:#BCBBBB;}
	.st1{fill:#F48023;}
</style><path
     id="path8"
     style="fill:#000000"
     d="M 31.65,58.2 69.704237,65.337288 71.05,59.262712 33.25,50.6 Z m 5,-18 L 71.904237,55.483051 74.85,49.754237 39.85,33.1 Z M 46.35,23 76.558475,46.683051 80.95,41.8 51.25,17.1 Z M 65.55,4.6999999 60.112712,8.7915255 83.621186,39.283051 88.55,35.7 Z M 30.85,75.8 69.45,75.8 69.195763,69.116949 30.85,68.1 Z m 54.1,15.5 -69.5,0 0,-30.9 7.7,0 0,23.2 54.1,0 0,-23.2 7.7,0 z"
     inkscape:connector-curvature="0"
     sodipodi:nodetypes="cccccccccccccccccccccccccccccccccc" /></svg>