<?xml version="1.0" encoding="UTF-8" standalone="no"?>
<!-- Created with Inkscape (http://www.inkscape.org/) -->

<svg
   xmlns:dc="http://purl.org/dc/elements/1.1/"
   xmlns:cc="http://creativecommons.org/ns#"
   xmlns:rdf="http://www.w3.org/1999/02/22-rdf-syntax-ns#"
   xmlns:svg="http://www.w3.org/2000/svg"
   xmlns="http://www.w3.org/2000/svg"
   xmlns:sodipodi="http://sodipodi.sourceforge.net/DTD/sodipodi-0.dtd"
   xmlns:inkscape="http://www.inkscape.org/namespaces/inkscape"
   width="103.57194mm"
   height="12.276667mm"
   viewBox="0 0 366.98718 43.5"
   id="svg2"
   version="1.1"
   inkscape:version="0.91 r13725"
   sodipodi:docname="main-title-2.svg">
  <defs
     id="defs4" />
  <sodipodi:namedview
     id="base"
     pagecolor="#ffffff"
     bordercolor="#666666"
     borderopacity="1.0"
     inkscape:pageopacity="0.0"
     inkscape:pageshadow="2"
     inkscape:zoom="1.979899"
     inkscape:cx="201.64028"
     inkscape:cy="3.5373681"
     inkscape:document-units="px"
     inkscape:current-layer="layer1"
     showgrid="false"
     fit-margin-top="0"
     fit-margin-left="0"
     fit-margin-right="0"
     fit-margin-bottom="0"
     inkscape:window-width="1440"
     inkscape:window-height="775"
     inkscape:window-x="0"
     inkscape:window-y="1"
     inkscape:window-maximized="1" />
  <metadata
     id="metadata7">
    <rdf:RDF>
      <cc:Work
         rdf:about="">
        <dc:format>image/svg+xml</dc:format>
        <dc:type
           rdf:resource="http://purl.org/dc/dcmitype/StillImage" />
        <dc:title></dc:title>
      </cc:Work>
    </rdf:RDF>
  </metadata>
  <g
     inkscape:label="Layer 1"
     inkscape:groupmode="layer"
     id="layer1"
     transform="translate(-240.50258,-509.13633)">
    <g
       style="font-style:normal;font-variant:normal;font-weight:600;font-stretch:normal;font-size:60px;line-height:125%;font-family:Choplin;-inkscape-font-specification:'Choplin Semi-Bold';letter-spacing:0px;word-spacing:0px;fill:#000000;fill-opacity:1;stroke:none;stroke-width:1px;stroke-linecap:butt;stroke-linejoin:miter;stroke-opacity:1"
       id="flowRoot4136">
      <path
         d="m 256.22258,527.61633 c -4.74,-0.78 -7.2,-2.34 -7.2,-5.64 0,-3.54 2.76,-5.7 7.8,-5.7 6.12,0 9.24,3.12 11.22,6.72 l 6.6,0 0,-12.06 -6.18,0 0,3.54 c -2.76,-3 -6.9,-4.44 -12,-4.44 -9.3,0 -15,4.86 -15,12.3 0,6.18 3.9,10.38 12.06,11.64 l 7.86,1.32 c 4.92,0.78 6.42,3.18 6.42,5.52 0,3.12 -3.06,5.16 -7.62,5.16 -6.66,0 -9.54,-2.76 -12.96,-7.56 l -6.72,0 0,13.32 6.72,0 0,-4.26 c 2.76,3.12 6.96,5.1 13.08,5.1 9.3,0 14.94,-4.62 14.94,-12.12 0,-6.78 -4.68,-10.5 -12.72,-11.82 l -6.3,-1.02 z"
         style=""
         id="path4149" />
      <path
         d="m 309.96102,529.71633 4.56,0 0,-6.36 -11.46,0 0,1.98 c -2.34,-1.68 -5.28,-2.64 -8.7,-2.64 -7.92,0 -14.28,6.6 -14.28,14.88 0,8.22 6.36,14.82 14.28,14.82 3.42,0 6.36,-0.96 8.7,-2.64 l 0,1.98 11.46,0 0,-6.36 -4.56,0 0,-15.66 z m -14.58,16.68 c -4.86,0 -8.4,-4.14 -8.4,-8.82 0,-4.74 3.54,-8.88 8.4,-8.88 2.7,0 5.22,0.9 7.68,3.3 l 0,11.1 c -2.46,2.4 -4.98,3.3 -7.68,3.3 z"
         style=""
         id="path4151" />
      <path
         d="m 340.15227,545.49633 c -1.44,0.42 -3.18,0.72 -4.74,0.72 -3.42,0 -5.46,-1.62 -5.46,-5.4 l 0,-11.1 10.02,0 0,-6.36 -10.02,0 0,-8.82 -6.9,0 0,8.82 -6.96,0 0,6.36 6.96,0 0,11.1 c 0,7.32 4.26,11.82 10.98,11.82 2.46,0 3.96,-0.24 7.08,-1.2 l -0.96,-5.94 z"
         style=""
         id="path4153" />
      <path
         d="m 377.33352,529.71633 0,-6.36 -15.6,0 0,6.36 4.14,0 -6.42,13.92 -6.42,-13.92 4.08,0 0,-6.36 -15.6,0 0,6.36 3.66,0 10.92,22.02 6.72,0 10.92,-22.02 3.6,0 z"
         style=""
         id="path4155" />
      <path
         d="m 386.9157,518.55633 c 2.58,0 4.68,-1.98 4.68,-4.56 0,-2.64 -2.1,-4.62 -4.68,-4.62 -2.64,0 -4.74,1.98 -4.74,4.62 0,2.58 2.1,4.56 4.74,4.56 z m 8.04,26.82 -4.62,0 0,-22.02 -11.4,0 0,6.36 4.5,0 0,15.66 -4.5,0 0,6.36 16.02,0 0,-6.36 z"
         style=""
         id="path4157" />
      <path
         d="m 436.07727,545.37633 -6.12,0 -8.82,-10.98 5.82,-4.68 6.36,0 0,-6.36 -14.52,0 0,5.7 -9.36,7.44 0,-27.36 -11.4,0 0,6.36 4.5,0 0,29.88 -4.5,0 0,6.36 16.5,0 0,-6.36 -5.1,0 0,-1.56 6.48,-5.22 6.96,8.64 0,4.5 13.2,0 0,-6.36 z"
         style=""
         id="path4159" />
      <path
         d="m 472.08195,527.61633 c -4.74,-0.78 -7.2,-2.34 -7.2,-5.64 0,-3.54 2.76,-5.7 7.8,-5.7 6.12,0 9.24,3.12 11.22,6.72 l 6.6,0 0,-12.06 -6.18,0 0,3.54 c -2.76,-3 -6.9,-4.44 -12,-4.44 -9.3,0 -15,4.86 -15,12.3 0,6.18 3.9,10.38 12.06,11.64 l 7.86,1.32 c 4.92,0.78 6.42,3.18 6.42,5.52 0,3.12 -3.06,5.16 -7.62,5.16 -6.66,0 -9.54,-2.76 -12.96,-7.56 l -6.72,0 0,13.32 6.72,0 0,-4.26 c 2.76,3.12 6.96,5.1 13.08,5.1 9.3,0 14.94,-4.62 14.94,-12.12 0,-6.78 -4.68,-10.5 -12.72,-11.82 l -6.3,-1.02 z"
         style=""
         id="path4161" />
      <path
         d="m 525.82039,529.71633 4.56,0 0,-6.36 -11.46,0 0,1.98 c -2.34,-1.68 -5.28,-2.64 -8.7,-2.64 -7.92,0 -14.28,6.6 -14.28,14.88 0,8.22 6.36,14.82 14.28,14.82 3.42,0 6.36,-0.96 8.7,-2.64 l 0,1.98 11.46,0 0,-6.36 -4.56,0 0,-15.66 z m -14.58,16.68 c -4.86,0 -8.4,-4.14 -8.4,-8.82 0,-4.74 3.54,-8.88 8.4,-8.88 2.7,0 5.22,0.9 7.68,3.3 l 0,11.1 c -2.46,2.4 -4.98,3.3 -7.68,3.3 z"
         style=""
         id="path4163" />
      <path
         d="m 570.70602,545.37633 -4.56,0 0,-9.3 c 0,-8.22 -4.98,-13.62 -12.48,-13.62 -3.42,0 -6.36,1.2 -8.76,3.24 l 0,-16.56 -11.4,0 0,6.36 4.5,0 0,29.88 -4.5,0 0,6.36 16.02,0 0,-6.36 -4.62,0 0,-12.48 c 2.16,-2.7 4.86,-4.14 7.32,-4.14 4.38,0 6.96,2.76 6.96,7.74 l 0,8.88 -4.5,0 0,6.36 16.02,0 0,-6.36 z"
         style=""
         id="path4165" />
      <path
         d="m 602.92977,529.71633 4.56,0 0,-6.36 -11.46,0 0,1.98 c -2.34,-1.68 -5.28,-2.64 -8.7,-2.64 -7.92,0 -14.28,6.6 -14.28,14.88 0,8.22 6.36,14.82 14.28,14.82 3.42,0 6.36,-0.96 8.7,-2.64 l 0,1.98 11.46,0 0,-6.36 -4.56,0 0,-15.66 z m -14.58,16.68 c -4.86,0 -8.4,-4.14 -8.4,-8.82 0,-4.74 3.54,-8.88 8.4,-8.88 2.7,0 5.22,0.9 7.68,3.3 l 0,11.1 c -2.46,2.4 -4.98,3.3 -7.68,3.3 z"
         style=""
         id="path4167" />
    </g>
    <text
       xml:space="preserve"
       style="font-style:normal;font-weight:normal;font-size:40px;line-height:125%;font-family:sans-serif;letter-spacing:0px;word-spacing:0px;fill:#000000;fill-opacity:1;stroke:none;stroke-width:1px;stroke-linecap:butt;stroke-linejoin:miter;stroke-opacity:1"
       x="674.78827"
       y="755.49347"
       id="text4144"
       sodipodi:linespacing="125%"><tspan
         sodipodi:role="line"
         id="tspan4146"
         x="674.78827"
         y="755.49347" /></text>
  </g>
</svg>
