<?xml version="1.0" encoding="UTF-8" standalone="no"?>
<!-- Created with Inkscape (http://www.inkscape.org/) -->

<svg
   xmlns:dc="http://purl.org/dc/elements/1.1/"
   xmlns:cc="http://creativecommons.org/ns#"
   xmlns:rdf="http://www.w3.org/1999/02/22-rdf-syntax-ns#"
   xmlns:svg="http://www.w3.org/2000/svg"
   xmlns="http://www.w3.org/2000/svg"
   xmlns:sodipodi="http://sodipodi.sourceforge.net/DTD/sodipodi-0.dtd"
   xmlns:inkscape="http://www.inkscape.org/namespaces/inkscape"
   width="55.16827mm"
   height="11.9888mm"
   viewBox="0 0 195.47812 42.48"
   id="svg2"
   version="1.1"
   inkscape:version="0.91 r13725"
   sodipodi:docname="main-title.svg">
  <defs
     id="defs4" />
  <sodipodi:namedview
     id="base"
     pagecolor="#ffffff"
     bordercolor="#666666"
     borderopacity="1.0"
     inkscape:pageopacity="0.0"
     inkscape:pageshadow="2"
     inkscape:zoom="1.979899"
     inkscape:cx="54.778874"
     inkscape:cy="46.818785"
     inkscape:document-units="px"
     inkscape:current-layer="layer1"
     showgrid="false"
     fit-margin-top="0"
     fit-margin-left="0"
     fit-margin-right="0"
     fit-margin-bottom="0"
     inkscape:window-width="1440"
     inkscape:window-height="775"
     inkscape:window-x="0"
     inkscape:window-y="1"
     inkscape:window-maximized="1" />
  <metadata
     id="metadata7">
    <rdf:RDF>
      <cc:Work
         rdf:about="">
        <dc:format>image/svg+xml</dc:format>
        <dc:type
           rdf:resource="http://purl.org/dc/dcmitype/StillImage" />
        <dc:title></dc:title>
      </cc:Work>
    </rdf:RDF>
  </metadata>
  <g
     inkscape:label="Layer 1"
     inkscape:groupmode="layer"
     id="layer1"
     transform="translate(-210.19227,-274.06133)">
    <g
       style="font-style:normal;font-variant:normal;font-weight:normal;font-stretch:normal;font-size:60px;line-height:125%;font-family:Resphekt;-inkscape-font-specification:Resphekt;letter-spacing:0px;word-spacing:0px;fill:#000000;fill-opacity:1;stroke:none;stroke-width:1px;stroke-linecap:butt;stroke-linejoin:miter;stroke-opacity:1"
       id="flowRoot4136">
      <path
         d="m 216.55227,316.54133 0.36,-0.54 0.24,-0.48 0.06,-0.24 0.18,0.06 0.3,-0.06 0.18,0 0,0.12 0.06,-0.06 0.3,0.18 0.3,-0.18 0.18,-0.3 0.24,-0.06 0.6,-0.36 0.36,-0.36 0.12,0.06 0.12,-0.12 0.54,-0.18 0.42,-0.36 0.66,-0.18 0.3,-0.06 0.12,0 0.24,-0.06 0.42,-0.24 0.42,0 0.24,0.12 0.36,-0.06 0.6,-0.3 0.3,-0.18 0.18,0.06 0.24,0.24 0.42,-0.06 0.24,-0.3 0.18,-0.42 0.48,-0.48 0.36,-0.42 0.66,-0.48 0.36,-0.18 0.3,-0.18 0.42,-0.12 1.2,-0.54 0.72,-0.12 0.36,-0.12 0.12,-0.48 0.12,-0.3 0.36,-0.6 0.42,-0.42 0.42,-0.72 0.36,-0.24 0.36,0.12 0.24,-0.36 0.36,-0.66 0.24,-0.48 0.12,-0.36 0,-0.72 -0.06,-0.18 0.06,-0.36 0,-0.42 0.18,-0.48 -0.18,-0.48 0.06,-0.48 -0.12,-0.66 -0.06,-0.54 -0.24,-0.42 -0.06,-0.9 -0.42,-0.96 -0.48,-0.66 -0.24,-0.6 -0.48,-0.48 -0.3,-0.06 -0.78,-0.48 -0.66,-0.24 -0.3,-0.36 -0.6,-0.18 -0.48,-0.36 -0.36,-0.06 -0.24,-0.48 -0.3,-0.36 -0.78,-0.06 -0.66,-0.48 -0.24,-0.18 -0.6,-0.36 -0.36,-0.3 -0.66,-0.48 -0.42,-0.18 -0.48,-0.42 -0.72,-0.54 -0.66,-0.54 -0.42,-0.48 -0.12,-0.36 0,-0.84 0.3,-0.54 0.24,-0.3 0.36,-0.54 0.36,-0.48 0.06,-0.18 0.18,-0.18 0.3,-0.12 0.42,-0.48 0.36,-0.06 0.3,0.12 0.18,-0.12 0.18,-0.6 0.36,-0.42 0.66,-0.36 0.24,-0.24 0.42,-0.6 0.42,-0.24 0.48,-0.06 0.72,-0.48 0.78,-0.18 0.36,-0.36 0.36,0 0.24,0.12 0.54,-0.36 0.36,-0.36 0.3,-0.18 0.24,-0.3 0.54,-0.42 0.24,0.06 0.48,-0.24 0.72,-0.18 0.66,0.12 0.3,0.24 0.72,-0.18 0.3,-0.3 0.48,-0.12 0.24,0 0.36,0.06 0.48,0.06 0.6,0.06 -0.06,0.36 -0.12,0.9 -0.12,0.36 -0.42,0.48 -0.24,0.48 -0.12,0.42 -0.12,0.54 -0.24,0.48 -0.36,0.3 0.24,0.24 0.42,-0.12 0.3,-0.42 0.36,-0.42 0.72,-0.48 0.66,-0.42 0.6,-0.54 0.24,-0.36 0.24,-0.48 0.18,-0.3 0.42,-0.42 0.48,-0.54 0.54,-0.54 0.24,-0.54 0.66,-0.48 0.66,-0.42 0.3,-0.3 0.24,-0.3 0.12,-0.36 0.3,-0.24 -0.3,-0.36 -0.12,-0.6 -0.24,-0.3 -0.18,-0.36 -0.42,-0.6 -0.18,-0.54 -0.6,-0.42 -0.18,-0.24 -0.3,0.18 -0.06,0.36 -0.36,0.18 -0.06,0.54 -0.36,0.3 -0.3,0.72 -0.84,1.2 -0.24,0.18 -0.36,0.06 -0.3,-0.48 -0.72,-0.72 -0.66,-0.42 -0.48,0.3 -0.54,0 -0.48,-0.06 -0.24,0.12 -0.3,0.06 -0.42,0.06 -0.6,-0.24 -0.3,-0.06 -0.42,0.06 0,-0.12 -0.24,0.18 -0.12,0.18 -0.3,0.06 -0.48,-0.06 -0.6,0 -0.42,0.24 -0.6,0 -0.42,-0.06 -0.66,0.24 -0.54,0.42 -0.6,0.3 -0.24,0.18 -0.9,0.48 -0.54,0.66 -0.72,0.24 -0.48,0.24 -0.42,0.36 -0.6,0.18 -0.48,0.06 -0.24,0.24 -0.24,0.36 -0.12,0.6 -0.36,0.18 -0.3,0.24 -0.18,0.42 -0.42,0.54 -0.3,0.3 -0.36,0.12 0,0.48 -0.48,0.54 -0.3,0.72 -0.48,0.48 -0.36,0.6 -0.24,0.42 -0.18,0.6 0.06,0.6 0.18,0.9 0,0.6 -0.12,0.66 0.12,0.3 0.18,0.72 0.06,0.66 0.12,0.84 0.24,0.3 0.42,0.6 0.3,0.42 0.24,0.54 0.3,0.54 0.36,0.3 0.6,0.36 0.54,0.48 0.96,0.48 0.66,0.24 0.54,0.3 0.6,0.48 0.54,0.06 0.42,0.3 0.6,0.42 0.6,0.48 0.54,0.3 0.66,0.24 0.6,0.12 0.42,0.18 0.66,0.12 1.14,1.14 0.54,0.18 0.3,0.9 0.3,0.66 -0.12,0.6 -0.24,0.36 -0.36,0.6 -0.42,0.6 -0.54,0.18 -0.36,0.36 -0.42,0.06 -0.42,0.24 -0.48,0.3 -0.72,0.6 -0.72,0.54 -0.24,0.36 -0.84,0.42 -0.78,0.24 -0.6,0 -0.42,0.06 -0.42,0.18 -0.3,0.36 -0.54,0.48 -0.72,0.24 -0.42,0.12 -0.6,0.3 -0.48,0.18 -0.36,0.06 -0.6,0.36 -0.42,0.3 -0.66,0.12 -0.48,-0.12 -0.36,0.06 -0.36,-0.06 -0.12,0.12 -0.36,0 -0.54,0.24 -0.78,0.12 -0.72,0.06 -0.48,-0.24 -0.18,-0.06 -0.18,0.3 -0.3,0.24 -0.66,0.06 -0.9,-0.18 -0.24,-0.42 0.18,-0.84 0.06,-0.54 0.42,-0.66 0.3,-0.48 0.36,-0.54 0.06,0 0,-0.36 0.06,-0.6 0.18,-0.3 0.42,-0.54 0.42,-0.42 0.42,-0.54 0.24,-0.18 0.18,-0.48 0.24,-0.36 0.18,-0.48 0.42,-0.24 0.42,-0.36 0.36,-0.54 0.06,-0.48 -0.3,-0.06 -0.24,0.3 -0.24,0.24 -0.24,0.12 -0.12,-0.18 -0.42,0.6 -0.72,0.24 -0.78,0.48 -0.66,0.24 -0.42,0.42 -0.48,0.3 -0.24,0.24 -0.36,0.24 -0.36,0.3 -0.48,0.12 -0.36,0.42 -0.48,0.42 -0.36,0.42 -0.3,0.6 -0.36,0.66 0.12,0.84 0,1.02 0.06,0.84 0.18,0.48 0.24,0.48 0.18,0.54 0,0.3 0.06,0.42 0.18,0.66 0.18,0.48 0.48,0.72 0.24,0.54 0.54,0.36 0.48,0.18 0.3,0.24 0.12,-0.3 0.24,-0.12 0.24,-0.24 0.3,0 0,0.3 0.24,0.12 0.12,-0.06 0.54,0.24 0.72,0.42 0.6,0.12 z"
         style=""
         id="path4166" />
      <path
         d="m 239.73945,315.10133 0.36,-0.18 0.42,-0.54 0.42,-0.48 0.54,-0.6 0.66,-0.48 0.36,-0.42 0.42,-0.48 0.42,-0.54 0.66,-0.72 0.6,-0.3 0.3,-0.3 0.12,-0.18 0,-0.18 0.36,-0.48 0.24,-0.6 0.48,-0.78 0.3,0 0.3,-0.24 0.18,0.36 -0.12,0.48 -0.24,0.42 -0.12,0.12 0.12,0.24 -0.24,0.42 0.06,0.6 0,0.42 0.06,0.36 -0.12,0.3 0.12,0.6 0.36,0.3 0.24,0.66 0.66,0.54 0.18,0.36 0.3,0.24 0.24,0.42 0.54,0.42 0.18,0.12 0.54,-0.06 0.36,-0.06 0.6,-0.36 0.42,-0.6 0.18,-0.3 0.3,-0.48 0.18,-0.3 0.3,-0.72 0.66,-0.96 0.3,-0.54 0.3,-0.48 0.36,-0.6 0.3,-0.36 0.24,-0.36 0.54,-0.24 0.36,-0.48 0.18,-0.42 0.66,-0.78 0.84,-0.96 0.24,-0.54 -0.24,-0.72 -0.9,0.6 -0.12,0.24 0,0.36 -0.78,0.9 -0.48,0.72 -0.18,0 -0.36,0.3 -0.48,0.24 -0.42,0.24 -0.24,0.24 -0.54,0.42 -0.6,0.72 -0.78,0.42 -0.48,0.36 -0.42,0.24 -0.48,0.24 -0.6,0.18 -0.24,-0.24 0,-0.48 -0.18,-0.72 0.42,-0.48 0.12,-0.48 0,-0.3 0.18,-0.24 -0.06,-0.6 0.42,-0.54 0.72,-0.54 0.24,-0.72 0.18,-0.42 -0.24,-0.6 0,-0.48 0.48,-0.54 0.3,-0.54 0.24,-0.78 0.54,-0.66 0.36,-0.48 0.3,-0.36 0.24,-0.48 0.9,-0.66 0.24,-0.06 0.12,-0.54 -0.24,-0.54 -0.48,-0.42 -0.48,-0.54 -0.36,-0.48 -0.66,-0.48 -0.42,-0.3 -0.3,0.24 -0.12,0.6 -0.48,0.54 -0.18,0.24 0.06,0.36 0,0.24 -0.36,0.18 -0.36,0.66 -0.06,-0.06 -0.42,-0.36 -0.42,-0.42 -0.42,-0.36 -0.42,-0.48 -0.66,-0.54 -0.42,-0.36 -0.36,0.06 -0.48,0.12 -0.72,-0.24 -0.6,0.06 -0.6,-0.12 -0.36,-0.12 -0.54,0.54 -0.36,0.3 -0.12,-0.06 -0.42,0.24 -0.36,0.3 -0.24,0.12 0,0.18 -0.3,0.06 -0.18,0.24 -0.36,0.42 -0.36,0.54 -0.24,0.54 -0.3,0.48 -0.24,0.24 -0.24,0.36 -0.36,0.18 -0.36,0.24 -0.12,0.48 -0.36,0.3 -0.18,0.6 -0.3,0.36 -0.06,0.78 -0.24,0.18 -0.3,0.24 -0.18,0.48 -0.24,0.48 0,0.36 -0.42,0.72 -0.24,0.9 0.06,0.9 -0.06,0.54 -0.24,0.48 0.12,0.48 0,0.72 0.18,0.78 0.06,0.42 0.18,0.36 0.24,0.72 0.42,0.48 0.48,0.36 0.66,0.66 0.3,0.24 0.36,0.36 0.78,0.18 z m 0.42,-4.98 -0.66,-0.18 -0.42,-0.36 0.06,-0.6 -0.12,-0.3 0.12,-0.06 0.24,-0.3 0.24,-0.54 0.3,-0.66 -0.06,-0.48 0.06,-0.36 0.3,-0.24 0.36,-0.36 0.3,-0.12 0.3,-0.3 0.06,-0.3 0.42,-0.48 0.3,-0.24 -0.12,-0.66 0.36,-0.36 0.36,-0.24 0.18,-0.24 0.36,0.06 0.42,0 0.06,-0.18 -0.06,-0.48 -0.06,-0.24 0.24,-0.24 0.84,0 0.06,-0.3 0.18,-0.18 0.48,-0.42 0.18,-0.36 0.54,-0.24 0.66,0.06 0.6,-0.18 0.66,0.06 0.48,0.18 0.12,0.12 0.3,0.06 0.24,0.18 -0.3,0.84 -0.36,0.66 -0.06,0.42 -0.36,0.6 -0.24,0.66 -0.3,0.72 -0.3,0.3 -0.54,0.6 -0.48,0.48 -0.72,0.48 -0.84,0.78 -0.48,0.3 -0.3,0.48 -0.6,0.36 -0.54,0.42 -0.36,0.3 -0.48,0.24 -0.3,0.24 -0.42,0.18 -0.42,0.36 -0.48,0.06 z"
         style=""
         id="path4168" />
      <path
         d="m 260.67195,315.04133 0.84,-0.24 0.36,-0.78 0.66,-0.78 0.12,-0.42 0.12,-0.48 0.24,-0.48 0.3,-0.66 0.48,-0.18 0.06,-0.42 0.06,-0.06 0.24,-0.18 0.3,-0.3 0.48,-0.24 0.42,-0.24 -0.12,-0.3 0,-0.24 0.3,-0.18 1.02,-1.02 0.36,-0.72 0.72,-0.24 0.36,-0.36 0.24,-0.48 0.6,-0.78 0.72,-0.3 0.18,-0.12 0.84,-0.36 0.3,-0.6 0.36,-0.18 0.24,-0.48 0.42,-0.18 0.36,-0.24 0.3,-0.36 0.36,-0.42 0.6,0.06 0.24,-0.42 0.06,-0.24 -0.12,-0.36 0.36,-0.3 0.42,-0.72 -0.24,-0.18 -0.6,0.24 -0.3,0.06 -0.42,0.24 -0.24,0.06 -0.06,0.3 -0.6,0.3 -0.96,0.96 -0.54,0.36 -0.48,0.54 -0.54,0.78 -0.6,0.24 -0.18,0.06 -0.3,0.48 -0.36,0.12 -0.6,0.36 -0.06,0.18 -0.24,0.3 -0.66,0.24 -0.72,0.54 0.06,0.06 -0.24,0 -0.24,0.3 -0.12,0.06 -0.3,0.48 -0.18,0.24 -0.24,0.18 -0.42,-0.06 -0.24,0.3 -0.72,0.84 -0.18,0.36 -0.6,0.42 -0.66,0.54 -0.78,0.18 -0.48,-0.12 -0.06,-0.72 -0.06,-1.02 0.42,-1.5 0.24,-0.48 0.18,-0.72 0.12,-0.54 0.36,-0.72 0.48,-0.66 0.36,-0.6 0.48,-0.42 0.3,-0.9 -0.18,-0.6 0.24,-0.72 0.36,-0.36 0.18,-0.24 0.96,-0.36 0.06,-0.3 0.48,0.12 0.18,0.3 0.42,-0.3 0.54,-0.12 0.54,0.06 0.24,0.06 0.48,-0.06 0.06,0.24 0.48,0 0.12,-0.3 0.12,0.06 0.42,-0.24 0.6,-0.3 0.78,-0.18 0.36,0.18 0.12,0 0.06,-0.36 -0.18,-0.36 -0.72,-0.24 -0.72,0 -0.6,-0.3 -0.48,0.06 -0.48,-0.3 -1.86,-0.24 -0.36,-0.36 0.06,-0.36 0.48,-0.78 -0.18,-0.66 0.48,-0.54 0.3,-1.2 0.48,-0.6 0.06,-0.84 0.6,-1.14 0.3,-1.02 0.18,-1.92 -0.06,-1.2 -0.36,-0.84 -0.72,-0.54 -0.3,0.6 -0.54,0.3 -0.48,0.72 -0.6,0.78 -0.06,0.9 -0.36,0.96 -0.3,0.78 -0.18,1.26 -0.54,0.72 -0.48,1.26 0.06,1.14 -0.54,0.96 -0.36,0.96 -0.24,0.42 0.06,0.06 -0.06,0.18 -0.18,0 -0.24,0.06 -0.3,-0.18 -0.6,-0.06 -0.12,0.12 -0.18,-0.06 -0.12,0.06 -0.12,0 -0.6,0.06 -0.54,-0.06 -0.54,0.18 -0.42,-0.18 -0.66,0 -1.92,0.54 -0.6,-0.18 -0.42,0 -0.3,0.24 0.12,0.48 0.48,0.66 0.36,0.36 0.6,1.08 1.38,0.66 0.42,-0.36 0.48,-0.42 0.54,-0.06 0.18,0.24 0.3,-0.3 0.66,-0.24 0.48,0.12 0.3,-0.06 0.6,-0.18 0.3,0 -0.06,0.12 -0.06,0.24 -0.18,0.36 -0.48,0.48 -0.24,0.54 -0.24,0.42 -0.3,0.54 0,0.42 -0.18,0.3 -0.12,0.36 -0.06,0.42 -0.06,0.24 -0.18,0.66 -0.54,0.78 -0.42,0.54 -0.12,0.18 0,0.78 -0.18,0.54 -0.36,0.72 -0.12,0.54 0,0.9 0.12,0.36 -0.24,0.6 0.18,0.78 0.06,0.48 0.24,0.3 0.54,0.48 0.78,0.66 0.24,0.36 0.42,0.78 0.3,0.42 0.42,0.3 z"
         style=""
         id="path4170" />
      <path
         d="m 275.3157,314.98133 0.24,-0.24 -0.06,-0.18 0.48,-0.42 0.6,-0.48 -0.24,-0.18 0.12,-0.06 0.12,-0.36 0.36,-0.06 0.3,-0.54 0.48,-0.96 0.3,-0.78 0,-0.3 0.24,0.18 0.3,0 0.18,-0.18 0.42,0.18 0.3,0 0,-0.36 -0.24,-0.3 0.06,-0.36 0,-0.24 0.3,0.06 0.18,0 0.12,-0.06 0.24,-0.18 0,-0.24 -0.3,-0.24 0.18,-0.36 -0.12,-0.36 0.06,-0.18 0.06,0 0.3,-0.12 0.48,0.12 -0.12,-0.18 0.06,-0.18 -0.06,-0.36 0.3,-0.3 0.42,-0.12 0.48,0.18 0.12,-0.12 0.12,-0.18 0.12,-0.54 0.48,-0.48 0.42,-0.3 0,-0.42 0.06,0.06 0.36,0 0.42,-0.06 0.12,-0.54 0.12,-0.6 0.18,-0.66 0.18,-0.48 0.24,-0.36 0.36,-0.3 0.78,0 0.54,-0.42 0.12,-0.9 0.36,-0.36 0.36,-0.06 0.18,0 0.18,-0.06 0.42,-0.24 0.24,-0.06 0.54,0.18 -0.06,-0.54 0.12,-0.36 -0.3,-0.54 -0.84,-0.18 -0.66,-0.36 -0.54,-0.48 -0.48,-0.54 -0.36,-0.42 -0.42,0 -0.36,0.3 0,0.48 0.12,0.48 -0.3,0.66 -0.48,0.24 -0.48,0.36 -0.54,0.66 -0.42,0.9 -0.06,0.36 -0.48,0.66 -0.42,0.3 -0.3,0.06 -0.24,0.18 -0.24,0 -0.18,0.72 -0.18,0.42 -0.54,0.24 0.12,0.18 -0.24,0.18 -0.42,0.48 -0.18,0.24 -0.18,-0.06 -0.24,0.06 -0.06,0.18 0.3,0.42 -0.24,0 -0.06,0.42 -0.12,0.3 -0.24,-0.18 -0.06,0.06 -0.24,0.12 -0.18,0.48 -0.84,0.42 -0.18,0.36 -0.06,0.06 0.06,0.18 -0.24,0.48 -0.6,0.66 -0.12,0.36 -0.24,-0.06 -0.18,-0.24 -0.12,-0.42 -0.06,-0.36 0.36,-0.72 0.12,-0.78 0.06,-0.42 0.12,-0.3 -0.06,-0.12 -0.24,-0.66 0.42,-0.66 0.42,-0.9 0.06,-0.3 0.06,-0.42 0.12,-0.36 0,-0.66 0.3,-0.66 0.48,-0.78 -0.48,-0.66 -0.6,-0.66 -0.54,-0.36 -0.48,-0.42 -0.48,-0.36 -0.6,-0.36 -0.18,-0.36 -0.48,-0.06 -0.12,0.18 0,0.78 0.3,0.6 -0.06,0.6 0,0.78 -0.06,0.6 -0.12,1.02 0.06,1.2 -0.06,0.78 -0.18,0.78 0,0.42 0.06,0.48 -0.06,0.36 0,0.3 -0.12,0.48 0.06,0.48 -0.18,0.72 -0.3,0.48 0.12,0.54 -0.06,0.3 0.06,0.18 0.06,0.42 -0.12,0.48 0.06,0.36 -0.06,0.24 0,0.3 0.06,0.66 0,0.72 -0.18,0.18 0.06,0.42 -0.18,0.18 -0.3,0.48 0.42,0.6 0.3,0.12 0.42,-0.06 0.66,0.48 0.78,0.48 z"
         style=""
         id="path4172" />
      <path
         d="m 293.12164,294.22133 0.06,0.18 0.18,0.36 0.42,0.12 0.06,0.12 0.24,-0.18 0.06,-0.3 0.6,-0.42 0.6,-0.3 -0.06,-0.3 0,-0.12 0.24,-0.24 0.18,-0.06 0.24,-0.18 0.42,-0.78 0.6,-0.36 0.48,-0.42 0.36,-0.42 0.06,-0.3 -0.12,-0.42 -0.3,-0.66 -0.42,-0.66 -0.12,-0.42 -0.36,-0.06 -0.06,-0.06 -0.12,-0.18 -0.6,-0.42 -0.42,-0.24 -0.24,0.42 -0.18,0.54 -0.36,0.18 0,0.36 -0.12,0.36 0,0.36 -0.3,0.42 -0.12,0.48 -0.24,0.54 0,0.3 0.06,0.24 -0.24,0.3 -0.3,0.18 -0.24,0.48 0.24,1.2 -0.18,0.36 z m 8.58,4.92 -0.36,-0.36 -0.06,0 -0.12,0.06 -0.36,1.08 -0.24,0 -0.12,-0.24 -0.24,0.06 -0.24,0.36 -0.6,0.3 -0.42,0.6 -0.36,0.42 -0.24,0.24 -0.42,0.36 -0.36,0.6 -0.24,0.3 -0.24,0.24 -0.42,0 -0.06,0.18 -0.42,0.6 -0.18,0.6 -0.84,0.66 -0.18,0.24 -0.12,0.18 -0.3,0.18 -0.54,0.06 -0.36,0.48 -0.6,0.54 -0.3,0.24 -0.06,0.36 -0.48,0.24 -0.24,0.36 -0.48,0 -0.42,0.12 -0.18,0.24 -0.18,0.18 -0.48,0.06 -0.36,-0.48 0.84,-1.68 0.18,-0.42 0.18,-0.48 0.42,-1.14 0.18,-0.36 0.3,0 -0.06,-0.42 0.06,-0.06 0.24,-0.48 0.36,-0.12 -0.06,-0.24 0.06,-0.3 0.12,-0.18 0.06,-0.36 0.18,-0.42 0.42,-0.48 0.12,-0.24 0.48,0.06 0.06,0 0.24,-0.66 0,-0.48 -0.48,-0.48 -0.24,-0.54 -0.24,-0.3 -0.36,-0.3 -0.24,-0.3 -0.48,-0.42 -0.24,-0.3 -0.3,-0.24 -0.12,-0.3 -0.24,0.18 0.06,0.12 -0.06,0.12 -0.18,0.24 -0.12,0.54 0,0.42 -0.36,0.84 -0.54,0.66 -0.12,0.54 0,0.42 -0.42,0.42 -0.18,0.36 -0.48,1.44 -0.42,0.6 -0.18,0.66 -0.18,0.72 -0.12,0.6 -0.42,0.9 -0.06,0.42 0,0.06 -0.18,0.54 -0.12,0.24 -0.06,0.18 -0.06,0.12 0,0.42 -0.18,0.54 -0.12,0.3 0,0.48 -0.18,0.24 -0.12,0.24 0,0.3 0.18,0.48 -0.42,0.84 0,0.12 0.12,0.3 0,0.54 0.42,0.36 0.42,0.18 0.06,0.06 0.48,0.6 0.3,0.48 0.54,0.48 0.3,0.12 0.48,0 0.24,-0.18 0.12,-0.3 0.3,-0.36 0.18,-0.12 0.24,-0.24 0,-0.12 0.12,-0.42 0.42,-0.54 0.3,-0.3 0.12,-0.18 0.12,0.06 0.42,-0.18 0.42,-0.24 0.42,-0.72 0.18,-0.12 0.24,-0.18 0.06,-0.18 0,-0.42 0.12,-0.36 0.36,-0.24 0.24,-0.3 0.36,-0.12 0.06,-0.12 0.06,0 0.36,0.06 0.3,-0.48 -0.12,-0.48 0.12,-0.06 0,-0.36 0.24,-0.06 0.48,-0.36 0,-0.3 0.24,-0.3 0.48,-0.9 0.3,-0.54 0.24,-0.3 0.18,-0.12 0.36,-0.06 0.24,0.18 0.3,-0.06 -0.06,-0.18 -0.06,-0.24 0.24,0 0.36,-0.24 0.12,0 0.06,-0.12 0,-0.18 0.18,-0.42 0.24,-0.36 0.3,-0.72 0.06,-0.42 0.06,-0.06 0.06,-0.12 0.24,-0.18 0.06,-0.06 0.18,-0.06 0.06,-0.18 0.36,-0.42 0.42,-0.48 0.24,-0.48 0.18,-0.24 0.3,-0.18 -0.12,-0.48 z"
         style=""
         id="path4174" />
      <path
         d="m 309.66852,316.18133 0.18,-0.3 -0.24,-0.48 -0.3,-0.54 -0.18,-0.54 -0.42,-0.36 -0.3,-0.54 -0.3,-0.72 -0.06,-0.48 -0.42,-0.66 -0.36,-0.66 -0.12,-0.42 -0.42,-0.54 -0.3,-0.72 -0.06,-0.36 -0.12,-0.3 0,-0.48 0.18,-0.36 -0.06,-0.36 -0.48,-0.36 -0.12,-0.6 0,-0.54 0.18,-0.06 0.06,-0.36 -0.12,-0.18 0.06,-0.48 0.36,-0.3 0.84,-0.84 0.54,-0.3 0.54,-0.24 0.42,-0.12 0.54,-0.06 0.42,-0.12 0.06,-0.24 0.24,-0.18 0.24,-0.12 0.18,-0.18 -0.06,-0.24 0,-0.12 0.12,-0.12 0.42,0.12 0.24,-0.3 0.18,-0.36 0.18,-0.42 0.48,-0.12 0.3,0.06 0.66,0 0.42,-0.3 0.36,-0.06 0.36,-0.24 0,-0.42 -0.12,-0.18 0.12,-0.3 0.18,-0.18 -0.06,-0.24 -0.18,-0.06 -0.36,-0.3 -0.48,-0.36 -0.42,-0.78 -0.36,-0.36 -0.54,-0.12 -0.6,0.18 -0.3,0.24 -0.42,0.42 -0.3,0.6 -0.48,0.48 -0.42,0.3 -0.72,0.3 -0.36,0.3 -0.3,-0.18 -0.24,0.18 -0.48,0.06 -0.48,0.48 -0.48,0.54 -0.6,0.48 -1.08,0.6 -0.6,0.48 -0.66,0.3 -0.42,0.18 -0.18,-0.36 0.06,-0.24 0.24,-0.66 0.24,-0.54 0.42,-0.54 0.3,-0.36 1.44,-2.34 0.42,-0.96 0.18,-0.48 0.3,-0.24 0,-0.42 0.06,-0.54 0.6,-0.54 0.48,-0.3 0.48,-0.06 0.18,-0.06 -0.24,-0.36 0.12,-0.66 0.36,-0.42 0.18,-0.12 0.24,-0.06 -0.12,-0.54 -0.06,-0.54 0.42,-0.18 0.66,-0.12 0.42,0 0.06,-0.12 0.3,-0.18 -0.24,-0.54 -0.12,-0.36 0.06,-0.72 0.24,-0.3 0.24,0.06 0.12,-0.36 0.12,-0.48 -0.06,-0.72 0.3,-0.3 0.36,0.06 0.12,-0.24 0.36,-0.42 -0.18,-0.12 -0.18,-0.3 0.12,-0.24 0.12,-0.3 -0.3,-0.36 -0.54,-0.3 -0.3,-0.12 -0.18,-0.12 -0.06,0.06 -0.12,-0.12 -0.12,-0.3 -0.06,-0.24 -0.66,-0.3 -0.54,0.3 -0.3,0.6 -0.12,0.72 -0.36,0.12 -0.18,0.12 -0.3,0.36 -0.18,0.54 -0.12,0.3 -0.12,0.54 -0.3,0.24 -0.18,0 -0.48,0.36 0.06,0.72 -0.12,0.42 0,0.06 -0.24,0.42 -0.24,0.18 -0.18,0.3 -0.12,0.24 -0.06,0.42 -0.24,0.36 -0.54,0.54 -0.18,0.78 -0.24,0.84 -0.48,0.3 -0.3,0.24 -0.18,0.54 -0.12,0.42 -0.36,0 -0.18,0.6 -0.12,0.12 -0.3,0.42 0,0.54 -0.06,0.6 -0.42,0.84 -0.18,0.54 0,0.48 -0.42,0.48 0.12,0.3 -0.12,0.06 -0.18,0.48 -0.36,0.54 -0.12,0.24 -0.18,0.54 -0.3,0.48 0,0.48 -0.24,0.48 -0.3,0.66 -0.36,0.42 -0.48,0.6 -0.06,0.42 0.18,0.42 -0.18,0.96 -0.24,0.54 0,0.3 -0.66,0.54 -0.18,0.66 -0.24,0.66 -0.3,0.12 -0.12,0.24 0.12,0.24 0,0.24 -0.3,0.12 0.06,0.42 0.06,0.12 -0.12,0.36 -0.06,0.06 0.06,0.24 -0.42,0.36 -0.36,0.42 -0.12,0.48 0.3,0.72 1.32,0.96 0.72,0.18 0.36,0.48 0.54,0.48 0.42,0 0.24,-0.3 -0.24,-0.48 -0.36,-0.84 0.12,-0.54 0.3,-0.36 0.3,-0.06 0.12,-0.6 0.06,-0.66 -0.12,-0.54 0.3,-0.48 0.36,-0.3 -0.24,-0.72 -0.06,-0.42 0.06,-0.18 0.12,-0.42 0,-0.24 0.12,-0.48 0.24,-0.3 0.36,-0.12 0.12,0 0.24,-0.18 0,-1.02 0.3,-0.36 0.42,-0.18 0.18,-0.06 0.54,0.36 0.3,0.48 0.6,0.72 0.12,0.3 0.18,0.3 -0.24,0.48 0.06,0.66 0.12,0.42 0.24,0.48 0.24,0.72 0.3,0.24 0.24,0.36 0.12,0.54 0.06,0.48 0.36,0.36 0.3,0.54 0.18,0.54 0.36,0.3 0.48,0.48 0.54,0 0.48,0.36 0.42,0.42 0.18,0.42 0.36,0.3 0.54,0.24 0.36,0.3 z"
         style=""
         id="path4176" />
      <path
         d="m 328.11477,316.54133 0.36,-0.54 0.24,-0.48 0.06,-0.24 0.18,0.06 0.3,-0.06 0.18,0 0,0.12 0.06,-0.06 0.3,0.18 0.3,-0.18 0.18,-0.3 0.24,-0.06 0.6,-0.36 0.36,-0.36 0.12,0.06 0.12,-0.12 0.54,-0.18 0.42,-0.36 0.66,-0.18 0.3,-0.06 0.12,0 0.24,-0.06 0.42,-0.24 0.42,0 0.24,0.12 0.36,-0.06 0.6,-0.3 0.3,-0.18 0.18,0.06 0.24,0.24 0.42,-0.06 0.24,-0.3 0.18,-0.42 0.48,-0.48 0.36,-0.42 0.66,-0.48 0.36,-0.18 0.3,-0.18 0.42,-0.12 1.2,-0.54 0.72,-0.12 0.36,-0.12 0.12,-0.48 0.12,-0.3 0.36,-0.6 0.42,-0.42 0.42,-0.72 0.36,-0.24 0.36,0.12 0.24,-0.36 0.36,-0.66 0.24,-0.48 0.12,-0.36 0,-0.72 -0.06,-0.18 0.06,-0.36 0,-0.42 0.18,-0.48 -0.18,-0.48 0.06,-0.48 -0.12,-0.66 -0.06,-0.54 -0.24,-0.42 -0.06,-0.9 -0.42,-0.96 -0.48,-0.66 -0.24,-0.6 -0.48,-0.48 -0.3,-0.06 -0.78,-0.48 -0.66,-0.24 -0.3,-0.36 -0.6,-0.18 -0.48,-0.36 -0.36,-0.06 -0.24,-0.48 -0.3,-0.36 -0.78,-0.06 -0.66,-0.48 -0.24,-0.18 -0.6,-0.36 -0.36,-0.3 -0.66,-0.48 -0.42,-0.18 -0.48,-0.42 -0.72,-0.54 -0.66,-0.54 -0.42,-0.48 -0.12,-0.36 0,-0.84 0.3,-0.54 0.24,-0.3 0.36,-0.54 0.36,-0.48 0.06,-0.18 0.18,-0.18 0.3,-0.12 0.42,-0.48 0.36,-0.06 0.3,0.12 0.18,-0.12 0.18,-0.6 0.36,-0.42 0.66,-0.36 0.24,-0.24 0.42,-0.6 0.42,-0.24 0.48,-0.06 0.72,-0.48 0.78,-0.18 0.36,-0.36 0.36,0 0.24,0.12 0.54,-0.36 0.36,-0.36 0.3,-0.18 0.24,-0.3 0.54,-0.42 0.24,0.06 0.48,-0.24 0.72,-0.18 0.66,0.12 0.3,0.24 0.72,-0.18 0.3,-0.3 0.48,-0.12 0.24,0 0.36,0.06 0.48,0.06 0.6,0.06 -0.06,0.36 -0.12,0.9 -0.12,0.36 -0.42,0.48 -0.24,0.48 -0.12,0.42 -0.12,0.54 -0.24,0.48 -0.36,0.3 0.24,0.24 0.42,-0.12 0.3,-0.42 0.36,-0.42 0.72,-0.48 0.66,-0.42 0.6,-0.54 0.24,-0.36 0.24,-0.48 0.18,-0.3 0.42,-0.42 0.48,-0.54 0.54,-0.54 0.24,-0.54 0.66,-0.48 0.66,-0.42 0.3,-0.3 0.24,-0.3 0.12,-0.36 0.3,-0.24 -0.3,-0.36 -0.12,-0.6 -0.24,-0.3 -0.18,-0.36 -0.42,-0.6 -0.18,-0.54 -0.6,-0.42 -0.18,-0.24 -0.3,0.18 -0.06,0.36 -0.36,0.18 -0.06,0.54 -0.36,0.3 -0.3,0.72 -0.84,1.2 -0.24,0.18 -0.36,0.06 -0.3,-0.48 -0.72,-0.72 -0.66,-0.42 -0.48,0.3 -0.54,0 -0.48,-0.06 -0.24,0.12 -0.3,0.06 -0.42,0.06 -0.6,-0.24 -0.3,-0.06 -0.42,0.06 0,-0.12 -0.24,0.18 -0.12,0.18 -0.3,0.06 -0.48,-0.06 -0.6,0 -0.42,0.24 -0.6,0 -0.42,-0.06 -0.66,0.24 -0.54,0.42 -0.6,0.3 -0.24,0.18 -0.9,0.48 -0.54,0.66 -0.72,0.24 -0.48,0.24 -0.42,0.36 -0.6,0.18 -0.48,0.06 -0.24,0.24 -0.24,0.36 -0.12,0.6 -0.36,0.18 -0.3,0.24 -0.18,0.42 -0.42,0.54 -0.3,0.3 -0.36,0.12 0,0.48 -0.48,0.54 -0.3,0.72 -0.48,0.48 -0.36,0.6 -0.24,0.42 -0.18,0.6 0.06,0.6 0.18,0.9 0,0.6 -0.12,0.66 0.12,0.3 0.18,0.72 0.06,0.66 0.12,0.84 0.24,0.3 0.42,0.6 0.3,0.42 0.24,0.54 0.3,0.54 0.36,0.3 0.6,0.36 0.54,0.48 0.96,0.48 0.66,0.24 0.54,0.3 0.6,0.48 0.54,0.06 0.42,0.3 0.6,0.42 0.6,0.48 0.54,0.3 0.66,0.24 0.6,0.12 0.42,0.18 0.66,0.12 1.14,1.14 0.54,0.18 0.3,0.9 0.3,0.66 -0.12,0.6 -0.24,0.36 -0.36,0.6 -0.42,0.6 -0.54,0.18 -0.36,0.36 -0.42,0.06 -0.42,0.24 -0.48,0.3 -0.72,0.6 -0.72,0.54 -0.24,0.36 -0.84,0.42 -0.78,0.24 -0.6,0 -0.42,0.06 -0.42,0.18 -0.3,0.36 -0.54,0.48 -0.72,0.24 -0.42,0.12 -0.6,0.3 -0.48,0.18 -0.36,0.06 -0.6,0.36 -0.42,0.3 -0.66,0.12 -0.48,-0.12 -0.36,0.06 -0.36,-0.06 -0.12,0.12 -0.36,0 -0.54,0.24 -0.78,0.12 -0.72,0.06 -0.48,-0.24 -0.18,-0.06 -0.18,0.3 -0.3,0.24 -0.66,0.06 -0.9,-0.18 -0.24,-0.42 0.18,-0.84 0.06,-0.54 0.42,-0.66 0.3,-0.48 0.36,-0.54 0.06,0 0,-0.36 0.06,-0.6 0.18,-0.3 0.42,-0.54 0.42,-0.42 0.42,-0.54 0.24,-0.18 0.18,-0.48 0.24,-0.36 0.18,-0.48 0.42,-0.24 0.42,-0.36 0.36,-0.54 0.06,-0.48 -0.3,-0.06 -0.24,0.3 -0.24,0.24 -0.24,0.12 -0.12,-0.18 -0.42,0.6 -0.72,0.24 -0.78,0.48 -0.66,0.24 -0.42,0.42 -0.48,0.3 -0.24,0.24 -0.36,0.24 -0.36,0.3 -0.48,0.12 -0.36,0.42 -0.48,0.42 -0.36,0.42 -0.3,0.6 -0.36,0.66 0.12,0.84 0,1.02 0.06,0.84 0.18,0.48 0.24,0.48 0.18,0.54 0,0.3 0.06,0.42 0.18,0.66 0.18,0.48 0.48,0.72 0.24,0.54 0.54,0.36 0.48,0.18 0.3,0.24 0.12,-0.3 0.24,-0.12 0.24,-0.24 0.3,0 0,0.3 0.24,0.12 0.12,-0.06 0.54,0.24 0.72,0.42 0.6,0.12 z"
         style=""
         id="path4178" />
      <path
         d="m 351.30195,315.10133 0.36,-0.18 0.42,-0.54 0.42,-0.48 0.54,-0.6 0.66,-0.48 0.36,-0.42 0.42,-0.48 0.42,-0.54 0.66,-0.72 0.6,-0.3 0.3,-0.3 0.12,-0.18 0,-0.18 0.36,-0.48 0.24,-0.6 0.48,-0.78 0.3,0 0.3,-0.24 0.18,0.36 -0.12,0.48 -0.24,0.42 -0.12,0.12 0.12,0.24 -0.24,0.42 0.06,0.6 0,0.42 0.06,0.36 -0.12,0.3 0.12,0.6 0.36,0.3 0.24,0.66 0.66,0.54 0.18,0.36 0.3,0.24 0.24,0.42 0.54,0.42 0.18,0.12 0.54,-0.06 0.36,-0.06 0.6,-0.36 0.42,-0.6 0.18,-0.3 0.3,-0.48 0.18,-0.3 0.3,-0.72 0.66,-0.96 0.3,-0.54 0.3,-0.48 0.36,-0.6 0.3,-0.36 0.24,-0.36 0.54,-0.24 0.36,-0.48 0.18,-0.42 0.66,-0.78 0.84,-0.96 0.24,-0.54 -0.24,-0.72 -0.9,0.6 -0.12,0.24 0,0.36 -0.78,0.9 -0.48,0.72 -0.18,0 -0.36,0.3 -0.48,0.24 -0.42,0.24 -0.24,0.24 -0.54,0.42 -0.6,0.72 -0.78,0.42 -0.48,0.36 -0.42,0.24 -0.48,0.24 -0.6,0.18 -0.24,-0.24 0,-0.48 -0.18,-0.72 0.42,-0.48 0.12,-0.48 0,-0.3 0.18,-0.24 -0.06,-0.6 0.42,-0.54 0.72,-0.54 0.24,-0.72 0.18,-0.42 -0.24,-0.6 0,-0.48 0.48,-0.54 0.3,-0.54 0.24,-0.78 0.54,-0.66 0.36,-0.48 0.3,-0.36 0.24,-0.48 0.9,-0.66 0.24,-0.06 0.12,-0.54 -0.24,-0.54 -0.48,-0.42 -0.48,-0.54 -0.36,-0.48 -0.66,-0.48 -0.42,-0.3 -0.3,0.24 -0.12,0.6 -0.48,0.54 -0.18,0.24 0.06,0.36 0,0.24 -0.36,0.18 -0.36,0.66 -0.06,-0.06 -0.42,-0.36 -0.42,-0.42 -0.42,-0.36 -0.42,-0.48 -0.66,-0.54 -0.42,-0.36 -0.36,0.06 -0.48,0.12 -0.72,-0.24 -0.6,0.06 -0.6,-0.12 -0.36,-0.12 -0.54,0.54 -0.36,0.3 -0.12,-0.06 -0.42,0.24 -0.36,0.3 -0.24,0.12 0,0.18 -0.3,0.06 -0.18,0.24 -0.36,0.42 -0.36,0.54 -0.24,0.54 -0.3,0.48 -0.24,0.24 -0.24,0.36 -0.36,0.18 -0.36,0.24 -0.12,0.48 -0.36,0.3 -0.18,0.6 -0.3,0.36 -0.06,0.78 -0.24,0.18 -0.3,0.24 -0.18,0.48 -0.24,0.48 0,0.36 -0.42,0.72 -0.24,0.9 0.06,0.9 -0.06,0.54 -0.24,0.48 0.12,0.48 0,0.72 0.18,0.78 0.06,0.42 0.18,0.36 0.24,0.72 0.42,0.48 0.48,0.36 0.66,0.66 0.3,0.24 0.36,0.36 0.78,0.18 z m 0.42,-4.98 -0.66,-0.18 -0.42,-0.36 0.06,-0.6 -0.12,-0.3 0.12,-0.06 0.24,-0.3 0.24,-0.54 0.3,-0.66 -0.06,-0.48 0.06,-0.36 0.3,-0.24 0.36,-0.36 0.3,-0.12 0.3,-0.3 0.06,-0.3 0.42,-0.48 0.3,-0.24 -0.12,-0.66 0.36,-0.36 0.36,-0.24 0.18,-0.24 0.36,0.06 0.42,0 0.06,-0.18 -0.06,-0.48 -0.06,-0.24 0.24,-0.24 0.84,0 0.06,-0.3 0.18,-0.18 0.48,-0.42 0.18,-0.36 0.54,-0.24 0.66,0.06 0.6,-0.18 0.66,0.06 0.48,0.18 0.12,0.12 0.3,0.06 0.24,0.18 -0.3,0.84 -0.36,0.66 -0.06,0.42 -0.36,0.6 -0.24,0.66 -0.3,0.72 -0.3,0.3 -0.54,0.6 -0.48,0.48 -0.72,0.48 -0.84,0.78 -0.48,0.3 -0.3,0.48 -0.6,0.36 -0.54,0.42 -0.36,0.3 -0.48,0.24 -0.3,0.24 -0.42,0.18 -0.42,0.36 -0.48,0.06 z"
         style=""
         id="path4180" />
      <path
         d="m 378.41445,315.52133 0.54,-0.42 0.42,-0.48 0.3,-0.42 0.54,-0.54 0.42,-0.54 0.48,-0.72 0.36,-0.66 0.18,-0.3 0.18,-0.6 0.24,-0.24 0.06,-0.18 0.42,-0.42 0.36,-0.48 0.3,-0.24 0.48,-0.6 0.36,-0.3 0.96,-0.84 0.78,-0.6 0.48,-0.84 0.3,-0.24 0.24,-0.48 0.3,-0.3 0.3,-0.48 0.48,-0.3 0.3,-0.42 0.42,-0.48 0.66,-0.84 0.3,-0.66 0.3,-0.36 -0.36,-0.12 -0.54,0.48 -0.42,0.6 -0.06,0.24 -0.48,0.36 -0.3,0.06 -0.42,0.6 -0.6,0.6 -1.14,1.02 -0.24,0.42 -0.48,0.24 -0.42,0.24 -0.78,0.78 -0.42,0.6 -0.48,0.36 -0.24,0.3 -0.3,-0.06 -0.24,0.24 -0.3,0.54 -0.18,0 -0.3,0.06 -0.54,0.3 -0.48,0.24 -0.3,0.48 -0.42,0.36 -0.54,0.36 -0.54,0.18 -0.54,0.24 -0.18,0 -0.18,-0.24 0.06,-0.36 -0.12,-0.48 0.18,-0.6 0.24,-0.6 0.12,-0.6 0.18,-0.24 0.06,-0.42 0.48,-0.54 0.12,-0.3 -0.06,-0.18 0.06,-0.24 0.12,-0.3 0.42,-0.24 0,-0.3 0.06,-0.3 0.24,-0.12 0,-0.18 -0.12,-0.12 0,-0.24 0.66,-0.78 0.3,-0.6 0.36,-0.42 0.18,-0.48 0.36,-0.3 0,-0.6 0.3,-0.36 0.12,-0.54 0.18,-0.96 0.12,-0.12 0.12,-0.42 0.12,-0.18 0,-0.36 -0.6,-0.54 -0.54,-0.6 -0.48,-0.6 -0.78,-0.42 -0.42,0.06 -0.54,0.42 -0.78,0.36 -0.36,0.3 -0.72,0.72 -0.36,0.42 -0.6,0.36 -0.48,0.42 -0.42,0.3 -0.66,0.84 -0.66,0.54 -0.54,0.18 -0.36,0.3 -0.6,0.12 -0.36,-0.18 -0.06,-0.36 0.12,-0.36 0.18,-0.66 0.72,-1.2 0.06,-0.3 0.06,-0.36 0.66,-0.36 0.36,-0.36 -0.24,-0.42 0.12,-0.48 0.48,-0.78 0.42,-0.24 0.18,-0.18 0.12,-0.18 -0.06,-0.3 0.12,-0.36 0.36,-0.12 0.3,-0.66 0.18,-0.72 0,-0.18 0.24,-0.48 0.12,-0.66 0.24,-0.42 0.12,-0.48 0.36,-0.42 0.36,-0.66 0.54,-0.6 0.24,-0.48 0.18,-0.42 0.42,-0.6 0.6,-0.36 0.18,0.06 0.3,-0.3 0.18,-0.42 -0.12,-0.18 -0.18,-0.3 -0.12,-0.36 -0.6,-0.48 -0.48,-0.36 -0.36,-0.48 -0.12,-0.06 -0.48,-0.12 -0.24,-0.42 -0.6,-0.24 -0.6,0.36 0,0.66 -0.12,0.24 -0.18,0.54 0.06,0.66 -0.18,0.3 -0.24,0.78 -0.24,0.42 -0.3,0.48 -0.12,0.48 -0.36,0.66 -0.18,0.66 -0.36,0.72 -0.06,0.36 0,0.3 -0.3,0.24 -0.48,0.3 -0.18,0.36 0,0.18 -0.06,0.54 0,0.3 -0.18,0.18 -0.3,0.84 -0.24,0.78 -0.24,0.48 -0.36,0.66 -0.24,0.36 0,0.48 -0.24,0.18 0,0.24 -0.42,0.12 0,0.36 -0.18,0.6 -0.36,0.72 -0.54,0.6 -0.3,0 -0.18,0.06 0.12,0.18 0,0.96 -0.36,0.84 -0.24,0.66 -0.18,0.54 -0.18,0.3 -0.24,0.12 -0.3,0.48 0.24,0.18 -0.18,0.24 -0.06,0.42 -0.3,0.48 -0.12,0.42 -0.42,0.48 -0.18,0.9 -0.24,0.18 -0.3,0.48 -0.24,0.42 -0.48,0.72 -0.6,0.6 -0.24,0.6 -0.48,0.66 -0.48,0.84 -0.06,0.3 0.12,0.18 0.12,0.36 0.54,0.48 0.66,0.3 0.3,0.12 0.6,0.36 0.12,0.36 0.54,0.42 0.42,0.36 0.6,0.48 0.3,-0.06 0,-0.66 -0.18,-0.6 0.18,-0.72 0.18,-0.96 0.48,-0.72 0.18,-0.6 0.12,-0.6 0,-0.42 0.48,-0.18 0.48,-0.12 0.06,0 0.18,-0.18 0.18,-0.42 -0.18,-0.18 0.12,-0.72 0.54,-0.54 0.42,-0.72 1.2,-1.2 0.3,-0.6 0.54,-0.42 0.18,-0.48 0.18,-0.06 0.24,-0.42 0.48,-0.3 0.3,0.06 0.36,-0.06 0.12,-0.6 0.3,-0.18 0.24,-0.48 0.78,-0.78 0.42,-0.54 0.66,-0.12 0.3,-0.24 0.42,0.06 0.18,-0.24 0.24,-0.12 0.18,-0.06 -0.06,0.9 -0.3,0.6 -0.12,0.48 -0.3,0.42 0,0.54 -0.3,0.36 -0.42,0.3 -0.36,0.54 -0.18,0.6 -0.12,0.42 -0.48,0.6 -0.12,0.66 -0.36,0.66 -0.54,0.96 -0.36,0.3 -0.12,0.36 0.12,0.24 -0.48,0.36 -0.24,0.12 0.06,0.48 -0.12,0.3 -0.12,0.54 0.06,0.72 0.24,0.9 0.42,0.72 0.3,0.24 0.36,0.24 0.36,0.48 0.54,0.36 0.78,0.3 0.66,0.42 0.72,0.24 z"
         style=""
         id="path4182" />
      <path
         d="m 388.45039,315.10133 0.36,-0.18 0.42,-0.54 0.42,-0.48 0.54,-0.6 0.66,-0.48 0.36,-0.42 0.42,-0.48 0.42,-0.54 0.66,-0.72 0.6,-0.3 0.3,-0.3 0.12,-0.18 0,-0.18 0.36,-0.48 0.24,-0.6 0.48,-0.78 0.3,0 0.3,-0.24 0.18,0.36 -0.12,0.48 -0.24,0.42 -0.12,0.12 0.12,0.24 -0.24,0.42 0.06,0.6 0,0.42 0.06,0.36 -0.12,0.3 0.12,0.6 0.36,0.3 0.24,0.66 0.66,0.54 0.18,0.36 0.3,0.24 0.24,0.42 0.54,0.42 0.18,0.12 0.54,-0.06 0.36,-0.06 0.6,-0.36 0.42,-0.6 0.18,-0.3 0.3,-0.48 0.18,-0.3 0.3,-0.72 0.66,-0.96 0.3,-0.54 0.3,-0.48 0.36,-0.6 0.3,-0.36 0.24,-0.36 0.54,-0.24 0.36,-0.48 0.18,-0.42 0.66,-0.78 0.84,-0.96 0.24,-0.54 -0.24,-0.72 -0.9,0.6 -0.12,0.24 0,0.36 -0.78,0.9 -0.48,0.72 -0.18,0 -0.36,0.3 -0.48,0.24 -0.42,0.24 -0.24,0.24 -0.54,0.42 -0.6,0.72 -0.78,0.42 -0.48,0.36 -0.42,0.24 -0.48,0.24 -0.6,0.18 -0.24,-0.24 0,-0.48 -0.18,-0.72 0.42,-0.48 0.12,-0.48 0,-0.3 0.18,-0.24 -0.06,-0.6 0.42,-0.54 0.72,-0.54 0.24,-0.72 0.18,-0.42 -0.24,-0.6 0,-0.48 0.48,-0.54 0.3,-0.54 0.24,-0.78 0.54,-0.66 0.36,-0.48 0.3,-0.36 0.24,-0.48 0.9,-0.66 0.24,-0.06 0.12,-0.54 -0.24,-0.54 -0.48,-0.42 -0.48,-0.54 -0.36,-0.48 -0.66,-0.48 -0.42,-0.3 -0.3,0.24 -0.12,0.6 -0.48,0.54 -0.18,0.24 0.06,0.36 0,0.24 -0.36,0.18 -0.36,0.66 -0.06,-0.06 -0.42,-0.36 -0.42,-0.42 -0.42,-0.36 -0.42,-0.48 -0.66,-0.54 -0.42,-0.36 -0.36,0.06 -0.48,0.12 -0.72,-0.24 -0.6,0.06 -0.6,-0.12 -0.36,-0.12 -0.54,0.54 -0.36,0.3 -0.12,-0.06 -0.42,0.24 -0.36,0.3 -0.24,0.12 0,0.18 -0.3,0.06 -0.18,0.24 -0.36,0.42 -0.36,0.54 -0.24,0.54 -0.3,0.48 -0.24,0.24 -0.24,0.36 -0.36,0.18 -0.36,0.24 -0.12,0.48 -0.36,0.3 -0.18,0.6 -0.3,0.36 -0.06,0.78 -0.24,0.18 -0.3,0.24 -0.18,0.48 -0.24,0.48 0,0.36 -0.42,0.72 -0.24,0.9 0.06,0.9 -0.06,0.54 -0.24,0.48 0.12,0.48 0,0.72 0.18,0.78 0.06,0.42 0.18,0.36 0.24,0.72 0.42,0.48 0.48,0.36 0.66,0.66 0.3,0.24 0.36,0.36 0.78,0.18 z m 0.42,-4.98 -0.66,-0.18 -0.42,-0.36 0.06,-0.6 -0.12,-0.3 0.12,-0.06 0.24,-0.3 0.24,-0.54 0.3,-0.66 -0.06,-0.48 0.06,-0.36 0.3,-0.24 0.36,-0.36 0.3,-0.12 0.3,-0.3 0.06,-0.3 0.42,-0.48 0.3,-0.24 -0.12,-0.66 0.36,-0.36 0.36,-0.24 0.18,-0.24 0.36,0.06 0.42,0 0.06,-0.18 -0.06,-0.48 -0.06,-0.24 0.24,-0.24 0.84,0 0.06,-0.3 0.18,-0.18 0.48,-0.42 0.18,-0.36 0.54,-0.24 0.66,0.06 0.6,-0.18 0.66,0.06 0.48,0.18 0.12,0.12 0.3,0.06 0.24,0.18 -0.3,0.84 -0.36,0.66 -0.06,0.42 -0.36,0.6 -0.24,0.66 -0.3,0.72 -0.3,0.3 -0.54,0.6 -0.48,0.48 -0.72,0.48 -0.84,0.78 -0.48,0.3 -0.3,0.48 -0.6,0.36 -0.54,0.42 -0.36,0.3 -0.48,0.24 -0.3,0.24 -0.42,0.18 -0.42,0.36 -0.48,0.06 z"
         style=""
         id="path4184" />
    </g>
  </g>
</svg>
